<?xml version="1.0" encoding="utf-8"?>
<!-- Generator: Adobe Illustrator 23.0.1, SVG Export Plug-In . SVG Version: 6.00 Build 0)  -->
<svg version="1.1" id="Layer_1" xmlns="http://www.w3.org/2000/svg" xmlns:xlink="http://www.w3.org/1999/xlink" x="0px" y="0px"
	 viewBox="0 0 32 32" style="enable-background:new 0 0 32 32;" xml:space="preserve">
<style type="text/css">
	.st0{fill:#C5C5C5;}
</style>
<path class="st0" d="M16,2C8.3,2,2,8.3,2,16s6.3,14,14,14s14-6.3,14-14S23.7,2,16,2z M10,26.4v-2c-0.1-1.8,1.2-3.3,3-3.4h6
	c1.8,0.1,3.1,1.6,3,3.4v2C18.3,28.5,13.7,28.5,10,26.4z M24,24.9v-0.6c0.1-2.8-2.2-5.2-5-5.3h-6c-2.8,0.1-5.1,2.5-5,5.3v0.6
	C3.1,20.5,2.6,12.9,7,8S19,2.6,24,7s5.4,12,1,16.9C24.7,24.3,24.3,24.6,24,24.9L24,24.9z"/>
<path class="st0" d="M16,7c-2.8,0-5,2.2-5,5s2.2,5,5,5s5-2.2,5-5S18.8,7,16,7z M16,15c-1.7,0-3-1.3-3-3s1.3-3,3-3s3,1.3,3,3
	C19,13.7,17.7,15,16,15z"/>
</svg>
