<?xml version="1.0" encoding="utf-8"?>
<!-- Generator: Adobe Illustrator 23.0.1, SVG Export Plug-In . SVG Version: 6.00 Build 0)  -->
<svg version="1.1" id="Layer_1" xmlns="http://www.w3.org/2000/svg" xmlns:xlink="http://www.w3.org/1999/xlink" x="0px" y="0px"
	 viewBox="0 0 32 32" style="enable-background:new 0 0 32 32;" xml:space="preserve">
<style type="text/css">
	.st0{fill:#C5C5C5;}
</style>
<path class="st0" d="M26,22c-0.7,0-1.4,0.2-2,0.6l-3.1-3.1c1.5-2.1,1.5-4.9,0-6.9L24,9.4c1.9,1.1,4.4,0.5,5.5-1.4s0.5-4.4-1.4-5.5
	c-1.9-1.1-4.4-0.5-5.5,1.4c-0.7,1.2-0.7,2.8,0,4l-3.1,3.1c-2.1-1.5-4.9-1.5-6.9,0L9.4,8C10.5,6.1,9.9,3.6,8,2.5S3.6,2.1,2.5,4
	S2.1,8.3,4,9.4c1.2,0.7,2.8,0.7,4,0l3.1,3.1c-1.5,2.1-1.5,4.9,0,7L8,22.6c-1.9-1.1-4.4-0.5-5.5,1.4S2.1,28.4,4,29.5s4.4,0.5,5.5-1.4
	c0.7-1.2,0.7-2.8,0-4l3.1-3.1c2.1,1.5,4.9,1.5,7,0l3.1,3.1c-1.1,1.9-0.4,4.4,1.5,5.5c1.9,1.1,4.4,0.4,5.5-1.5s0.4-4.4-1.5-5.5
	C27.4,22.2,26.7,22,26,22z M26,4c1.1,0,2,0.9,2,2s-0.9,2-2,2s-2-0.9-2-2S24.9,4,26,4z M4,6c0-1.1,0.9-2,2-2s2,0.9,2,2S7.1,8,6,8
	S4,7.1,4,6z M6,28c-1.1,0-2-0.9-2-2s0.9-2,2-2s2,0.9,2,2S7.1,28,6,28z M16,20c-2.2,0-4-1.8-4-4s1.8-4,4-4s4,1.8,4,4S18.2,20,16,20z
	 M26,28c-1.1,0-2-0.9-2-2s0.9-2,2-2s2,0.9,2,2S27.1,28,26,28z"/>
</svg>
