<?xml version="1.0" encoding="utf-8"?>
<!-- Generator: Adobe Illustrator 23.0.1, SVG Export Plug-In . SVG Version: 6.00 Build 0)  -->
<svg version="1.1" id="Layer_1" xmlns="http://www.w3.org/2000/svg" xmlns:xlink="http://www.w3.org/1999/xlink" x="0px" y="0px"
	 viewBox="0 0 32 32" style="enable-background:new 0 0 32 32;" xml:space="preserve">
<style type="text/css">
	.st0{fill:#C5C5C5;}
</style>
<path class="st0" d="M12,4H6C4.9,4,4,4.9,4,6v6c0,1.1,0.9,2,2,2h6c1.1,0,2-0.9,2-2V6C14,4.9,13.1,4,12,4z M12,12H6V6h6V12z M26,4h-6
	c-1.1,0-2,0.9-2,2v6c0,1.1,0.9,2,2,2h6c1.1,0,2-0.9,2-2V6C28,4.9,27.1,4,26,4z M26,12h-6V6h6V12z M12,18H6c-1.1,0-2,0.9-2,2v6
	c0,1.1,0.9,2,2,2h6c1.1,0,2-0.9,2-2v-6C14,18.9,13.1,18,12,18z M12,26H6v-6h6V26z M26,18h-6c-1.1,0-2,0.9-2,2v6c0,1.1,0.9,2,2,2h6
	c1.1,0,2-0.9,2-2v-6C28,18.9,27.1,18,26,18z M26,26h-6v-6h6V26z"/>
</svg>
