<?xml version="1.0" encoding="utf-8"?>
<!-- Generator: Adobe Illustrator 23.0.1, SVG Export Plug-In . SVG Version: 6.00 Build 0)  -->
<svg version="1.1" id="Layer_1" xmlns="http://www.w3.org/2000/svg" xmlns:xlink="http://www.w3.org/1999/xlink" x="0px" y="0px"
	 viewBox="0 0 32 32" style="enable-background:new 0 0 32 32;" xml:space="preserve">
<style type="text/css">
	.st0{fill:#C5C5C5;}
</style>
<path class="st0" d="M24,12c1.7,0,3,1.3,3,3s-1.3,3-3,3s-3-1.3-3-3S22.3,12,24,12 M24,10c-2.8,0-5,2.2-5,5s2.2,5,5,5s5-2.2,5-5
	S26.8,10,24,10z M31,30h-2v-3c0-1.7-1.3-3-3-3h-4c-1.7,0-3,1.3-3,3v3h-2v-3c0-2.8,2.2-5,5-5h4c2.8,0,5,2.2,5,5V30z M8,4
	c1.7,0,3,1.3,3,3s-1.3,3-3,3S5,8.7,5,7S6.3,4,8,4 M8,2C5.2,2,3,4.2,3,7s2.2,5,5,5s5-2.2,5-5S10.8,2,8,2z M15,22h-2v-3
	c0-1.7-1.3-3-3-3H6c-1.7,0-3,1.3-3,3v3H1v-3c0-2.8,2.2-5,5-5h4c2.8,0,5,2.2,5,5V22z"/>
</svg>
