<svg xmlns="http://www.w3.org/2000/svg" width="18" height="18" viewBox="0 0 18 18">
  <path fill="#FFF" d="M15.2307692,6.48 L15.2307692,0 L13.8461538,0 L13.8461538,1.44 L11.7692308,1.44 L11.7692308,2.88 L13.8461538,2.88 L13.8461538,6.48 L11.7692308,6.48 L11.7692308,7.92 L17.3076923,7.92 L17.3076923,6.48 L15.2307692,6.48 Z M3.80769231,1.44 C5.14592074,1.44 6.23076923,2.56824243 6.23076923,3.96 C6.23076923,5.35175757 5.14592074,6.48 3.80769231,6.48 C2.46946388,6.48 1.38461538,5.35175757 1.38461538,3.96 C1.38461538,2.56824243 2.46946388,1.44 3.80769231,1.44 Z M3.80769231,0 C1.70476191,0 3.07446376e-16,1.77295239 0,3.96 C-6.14892752e-16,6.14704761 1.70476191,7.92 3.80769231,7.92 C5.9106227,7.92 7.61538462,6.14704761 7.61538462,3.96 C7.61538462,2.9097427 7.21421818,1.90250121 6.50013736,1.15985715 C5.78605653,0.417213088 4.8175551,0 3.80769231,0 Z M3.80769231,11.52 C5.14592074,11.52 6.23076923,12.6482424 6.23076923,14.04 C6.23076923,15.4317576 5.14592074,16.56 3.80769231,16.56 C2.46946388,16.56 1.38461538,15.4317576 1.38461538,14.04 C1.38461538,12.6482424 2.46946388,11.52 3.80769231,11.52 Z M3.80769231,10.08 C1.70476191,10.08 3.07446376e-16,11.8529524 0,14.04 C-6.14892752e-16,16.2270476 1.70476191,18 3.80769231,18 C5.9106227,18 7.61538462,16.2270476 7.61538462,14.04 C7.61538462,11.8529524 5.9106227,10.08 3.80769231,10.08 Z M14.1923077,11.52 C15.5305361,11.52 16.6153846,12.6482424 16.6153846,14.04 C16.6153846,15.4317576 15.5305361,16.56 14.1923077,16.56 C12.8540793,16.56 11.7692308,15.4317576 11.7692308,14.04 C11.7692308,12.6482424 12.8540793,11.52 14.1923077,11.52 Z M14.1923077,10.08 C12.0893773,10.08 10.3846154,11.8529524 10.3846154,14.04 C10.3846154,16.2270476 12.0893773,18 14.1923077,18 C16.2952381,18 18,16.2270476 18,14.04 C18,11.8529524 16.2952381,10.08 14.1923077,10.08 Z"/>
</svg>
