<?xml version="1.0" encoding="utf-8"?>
<!-- Generator: Adobe Illustrator 23.0.1, SVG Export Plug-In . SVG Version: 6.00 Build 0)  -->
<svg version="1.1" id="icon" xmlns="http://www.w3.org/2000/svg" xmlns:xlink="http://www.w3.org/1999/xlink" x="0px" y="0px"
	 viewBox="0 0 32 32" style="enable-background:new 0 0 32 32;" xml:space="preserve">
<style type="text/css">
	.st0{fill:#C5C5C5;}
	.st1{fill:none;}
</style>
<title>logout</title>
<path class="st0" d="M26,30H14c-1.1,0-2-0.9-2-2v-3h2v3h12V4H14v3h-2V4c0-1.1,0.9-2,2-2h12c1.1,0,2,0.9,2,2v24
	C28,29.1,27.1,30,26,30z"/>
<polygon class="st0" points="11.4,20.6 7.8,17 22,17 22,15 7.8,15 11.4,11.4 10,10 4,16 10,22 "/>
<rect id="_Transparent_Rectangle_" class="st1" width="32" height="32"/>
</svg>
