<svg focusable="false" preserveAspectRatio="xMidYMid meet" xmlns="http://www.w3.org/2000/svg" width="32" height="32" viewBox="0 0 32 32" aria-hidden="true" style="will-change: transform;fill:#C5C5C5;"><path d="M28,6V26H4V6H28m0-2H4A2,2,0,0,0,2,6V26a2,2,0,0,0,2,2H28a2,2,0,0,0,2-2V6a2,2,0,0,0-2-2Z"></path><rect width="7" height="2" x="6" y="10"></rect><rect width="4" height="2" x="6" y="14"></rect><path d="M23,18H17a3,3,0,0,0-3,3v2h2V21a1,1,0,0,1,1-1h6a1,1,0,0,1,1,1v2h2V21A3,3,0,0,0,23,18Z"></path><path d="M20,17a4,4,0,1,0-4-4A4,4,0,0,0,20,17Zm0-6a2,2,0,1,1-2,2A2,2,0,0,1,20,11Z"></path><title>Identification</title></svg>