<?xml version="1.0" encoding="utf-8"?>
<!-- Generator: Adobe Illustrator 23.0.1, SVG Export Plug-In . SVG Version: 6.00 Build 0)  -->
<svg version="1.1" id="Layer_1" xmlns="http://www.w3.org/2000/svg" xmlns:xlink="http://www.w3.org/1999/xlink" x="0px" y="0px"
	 viewBox="0 0 32 32" style="enable-background:new 0 0 32 32;" xml:space="preserve">
<style type="text/css">
	.st0{fill:#C5C5C5;}
</style>
<path class="st0" d="M26,22v4h-4v-4H26 M27,20h-6c-0.6,0-1,0.4-1,1v6c0,0.6,0.4,1,1,1h6c0.6,0,1-0.4,1-1v-6C28,20.4,27.6,20,27,20z
	 M26,12v4h-4v-4H26 M27,10h-6c-0.6,0-1,0.4-1,1v6c0,0.6,0.4,1,1,1h6c0.6,0,1-0.4,1-1v-6C28,10.4,27.6,10,27,10z M16,22v4h-4v-4H16
	 M17,20h-6c-0.6,0-1,0.4-1,1v6c0,0.6,0.4,1,1,1h6c0.6,0,1-0.4,1-1v-6C18,20.4,17.6,20,17,20z M16,6v10H6V6H16 M16,4H6
	C4.9,4,4,4.9,4,6v10c0,1.1,0.9,2,2,2h10c1.1,0,2-0.9,2-2V6C18,4.9,17.1,4,16,4z"/>
</svg>
