<?xml version="1.0" encoding="UTF-8"?>
<svg width="20px" height="20px" viewBox="0 0 20 20" version="1.1" xmlns="http://www.w3.org/2000/svg" xmlns:xlink="http://www.w3.org/1999/xlink">
    <!-- Generator: Sketch 54.1 (76490) - https://sketchapp.com -->
    <title>launch</title>
    <desc>Created with Sketch.</desc>
    <defs>
        <path d="M16.25,17.5 L3.75,17.5 C3.05964406,17.5 2.5,16.9403559 2.5,16.25 L2.5,3.75 C2.5,3.05964406 3.05964406,2.5 3.75,2.5 L9.375,2.5 L9.375,3.75 L3.75,3.75 L3.75,16.25 L16.25,16.25 L16.25,10.625 L17.5,10.625 L17.5,16.25 C17.5,16.9403559 16.9403559,17.5 16.25,17.5 Z M13.125,1.25 L13.125,2.5 L16.61875,2.5 L11.25,7.86875 L12.13125,8.75 L17.5,3.38125 L17.5,6.875 L18.75,6.875 L18.75,1.25 L13.125,1.25 L13.125,1.25 Z" id="path-1"></path>
    </defs>
    <g id="launch" stroke="none" stroke-width="1" fill="none" fill-rule="evenodd">
        <g id="icon/action/launch/16">
            <mask id="mask-2" fill="white">
                <use xlink:href="#path-1"></use>
            </mask>
            <use id="icon-color" fill="#000000" fill-rule="evenodd" xlink:href="#path-1"></use>
        </g>
    </g>
</svg>