<svg xmlns="http://www.w3.org/2000/svg" viewBox="0 0 32 32"><path d="M26.962 16.757c.017-.252.038-.502.038-.757 0-.258-.01-.513-.028-.766l1.92-1.688a2 2 0 0 0 .413-2.502l-2.36-4.088a1.999 1.999 0 0 0-2.373-.895l-2.434.824a11.038 11.038 0 0 0-1.312-.759l-.504-2.518A2 2 0 0 0 18.36 2h-4.72a2 2 0 0 0-1.961 1.608l-.504 2.518a10.994 10.994 0 0 0-1.327.754l-2.42-.819a1.999 1.999 0 0 0-2.372.895l-2.36 4.088a2 2 0 0 0 .412 2.502l1.93 1.697C5.022 15.495 5 15.745 5 16c0 .258.01.513.028.766l-1.92 1.688a2 2 0 0 0-.413 2.502l2.36 4.088a1.999 1.999 0 0 0 2.373.895l2.434-.824a11.034 11.034 0 0 0 1.312.759l.504 2.518A2 2 0 0 0 13.64 30h4.72a2 2 0 0 0 1.961-1.608l.504-2.518a10.99 10.99 0 0 0 1.326-.754l2.42.819a1.999 1.999 0 0 0 2.373-.895l2.36-4.088a2 2 0 0 0-.412-2.502zm-1.75 7.287l-3.427-1.16a9.024 9.024 0 0 1-2.715 1.565L18.36 28h-4.72l-.71-3.551a9.095 9.095 0 0 1-2.695-1.57l-3.447 1.165-2.36-4.088 2.726-2.395a8.925 8.925 0 0 1-.007-3.128l-2.72-2.389L6.79 7.956l3.426 1.16A9.021 9.021 0 0 1 12.93 7.55L13.64 4h4.72l.71 3.551a9.1 9.1 0 0 1 2.695 1.57l3.447-1.165 2.36 4.088-2.726 2.395a8.924 8.924 0 0 1 .007 3.128l2.719 2.389z"/><path d="M16 22a6 6 0 1 1 6-6 5.936 5.936 0 0 1-6 6zm0-10a3.912 3.912 0 0 0-4 4 3.912 3.912 0 0 0 4 4 3.912 3.912 0 0 0 4-4 3.912 3.912 0 0 0-4-4z"/></svg>