<svg xmlns="http://www.w3.org/2000/svg" width="18" height="18" viewBox="0 0 18 18">
  <g fill-rule="evenodd">
    <path fill-rule="nonzero" d="M16.5,0 L1.5,0 C0.671572875,0 0,0.671572875 0,1.5 L0,16.5 C0,17.3284271 0.671572875,18 1.5,18 L16.5,18 C17.3284271,18 18,17.3284271 18,16.5 L18,1.5 C18,0.671572875 17.3284271,0 16.5,0 Z M16.5,1.5 L16.5,4.5 L1.5,4.5 L1.5,1.5 L16.5,1.5 Z M1.5,16.5 L1.5,6 L16.5,6 L16.5,16.5 L1.5,16.5 Z"/>
    <polygon points="4.189 9.31 6.129 11.25 4.189 13.19 5.25 14.25 8.25 11.25 5.25 8.25"/>
  </g>
</svg>
