<?xml version="1.0" encoding="utf-8"?>
<!-- Generator: Adobe Illustrator 23.0.1, SVG Export Plug-In . SVG Version: 6.00 Build 0)  -->
<svg version="1.1" id="Layer_1" xmlns="http://www.w3.org/2000/svg" xmlns:xlink="http://www.w3.org/1999/xlink" x="0px" y="0px"
	 viewBox="0 0 30 30" style="enable-background:new 0 0 30 30;" xml:space="preserve">
<style type="text/css">
	.st0{fill:#FFFFFF;}
</style>
<path class="st0" d="M15,0C6.7,0,0,6.9,0,15.3C0,22,4.1,27.9,10.3,30c0.7,0.1,1.1-0.3,1.1-0.8v-2.6c-4.2,0.9-5-2.1-5-2.1
	c-0.3-0.9-0.9-1.7-1.7-2.2c-1.4-1,0.1-1,0.1-1C5.7,21.4,6.5,22,7,22.8c0.9,1.6,2.8,2.1,4.4,1.3c0.1-0.8,0.4-1.5,1-2.1
	c-3.3-0.4-6.9-1.8-6.9-7.6c0-1.5,0.5-3,1.5-4.2C6.6,9,6.6,7.5,7.1,6.2c0,0,1.3-0.4,4.1,1.5c1.2-0.4,2.5-0.5,3.7-0.5
	c1.3,0,2.5,0.2,3.7,0.5c2.9-1.9,4.1-1.5,4.1-1.5c0.6,1.3,0.6,2.8,0.1,4.1c1,1.1,1.5,2.6,1.5,4.2c0,5.9-3.5,7.2-6.9,7.6
	c0.7,0.7,1.1,1.8,1.1,2.9v4.2c0,0.4,0.3,0.9,1.1,0.8C25.8,27.9,30,22,30,15.4C30,6.9,23.3,0,15,0z"/>
</svg>
