<svg id="Layer_1" data-name="Layer 1" xmlns="http://www.w3.org/2000/svg" viewBox="0 0 15.91 15.51"><defs><style>.cls-1{fill:#bebebe;}</style></defs><title>github_dark</title><path class="cls-1" d="M8,.24A7.95,7.95,0,0,0,5.5,15.74c.39.06.56-.17.56-.4V14C3.85,14.44,3.4,12.9,3.4,12.9a1.9,1.9,0,0,0-.91-1.13c-.74-.51,0-.51,0-.51a1.6,1.6,0,0,1,1.2.79,1.75,1.75,0,0,0,2.32.68,1.79,1.79,0,0,1,.51-1.08c-1.76-.22-3.63-.9-3.63-3.91a3.16,3.16,0,0,1,.8-2.16,3.15,3.15,0,0,1,0-2.12s.68-.23,2.16.79a7.9,7.9,0,0,1,2-.28,7.76,7.76,0,0,1,2,.28c1.54-1,2.16-.79,2.16-.79a2.56,2.56,0,0,1,.06,2.1,3.06,3.06,0,0,1,.79,2.16c0,3.06-1.87,3.74-3.63,3.91a1.91,1.91,0,0,1,.57,1.48v2.16c0,.22.17.45.56.39a7.76,7.76,0,0,0,5.51-7.47A8,8,0,0,0,8,.24Z" transform="translate(-0.03 -0.24)"/></svg>
