<svg xmlns="http://www.w3.org/2000/svg" width="14" height="14" viewBox="0 0 14 14">
  <g fill="#FFF">
    <path d="M7.5,9.55882353 L7.5,5.32352941 L5.5,5.32352941 L5.5,6.26470588 L6.5,6.26470588 L6.5,9.55882353 L5,9.55882353 L5,10.5 L9,10.5 L9,9.55882353 L7.5,9.55882353 Z M7,2.5 C6.58578644,2.5 6.25,2.81603429 6.25,3.20588235 C6.25,3.59573041 6.58578644,3.91176471 7,3.91176471 C7.41421356,3.91176471 7.75,3.59573041 7.75,3.20588235 C7.75,2.81603429 7.41421356,2.5 7,2.5 Z"/>
    <path d="M7,14 C3.13400675,14 4.4408921e-16,10.8659932 0,7 C-4.4408921e-16,3.13400675 3.13400675,8.8817842e-16 7,0 C10.8659932,-7.77156117e-16 14,3.13400675 14,7 C14,10.8659932 10.8659932,14 7,14 Z M7,1 C3.6862915,1 1,3.6862915 1,7 C1,10.3137085 3.6862915,13 7,13 C10.3137085,13 13,10.3137085 13,7 C13,3.6862915 10.3137085,1 7,1 Z"/>
  </g>
</svg>
