<svg xmlns="http://www.w3.org/2000/svg" xmlns:xlink="http://www.w3.org/1999/xlink" width="192" height="192" viewBox="0 0 192 192"><defs><style>.a{fill:none;}.b{fill:url(#a);}.c{fill:url(#b);}.d{fill:url(#c);}.e{fill:url(#d);}.f{fill:#c6c6c6;}.g{fill:#fff;}</style><linearGradient id="a" x1="44.04" y1="178.01" x2="147.96" y2="118.02" gradientUnits="userSpaceOnUse"><stop offset="0" stop-color="#525252" stop-opacity="0.05"/><stop offset="1" stop-opacity="0.1"/></linearGradient><linearGradient id="b" x1="36.38" y1="104.01" x2="96.74" y2="104.01" gradientUnits="userSpaceOnUse"><stop offset="0" stop-color="#e0e0e0"/><stop offset="1" stop-color="#c6c6c6"/></linearGradient><linearGradient id="c" x1="96" y1="104.01" x2="165.3" y2="104.01" gradientUnits="userSpaceOnUse"><stop offset="0" stop-color="#a8a8a8"/><stop offset="1" stop-color="#c6c6c6"/></linearGradient><linearGradient id="d" x1="44.04" y1="73.99" x2="147.96" y2="13.99" gradientUnits="userSpaceOnUse"><stop offset="0" stop-color="#f4f4f4"/><stop offset="1" stop-color="#e0e0e0"/></linearGradient></defs><rect class="a" width="192" height="192"/><polygon class="b" points="96 188.01 26.73 148.01 96 108.02 165.28 148.01 96 188.01"/><polygon class="c" points="96 164.03 26.7 124.03 26.72 43.99 96 83.99 96 164.03"/><polygon class="d" points="165.3 124.03 96 164.03 96 83.99 165.28 43.99 165.3 124.03"/><polygon class="e" points="96 83.99 26.72 43.99 96 3.99 165.28 43.99 96 83.99"/><polygon class="f" points="62.32 64.01 131.14 24.28 130.14 23.7 61.29 63.45 62.32 64.01"/><polygon class="g" points="96 84.57 26.72 44.57 26.72 43.99 27.22 43.7 96.5 83.7 96 83.99 96 84.57"/><polygon class="g" points="51.59 80 31.91 68.64 31.91 55 51.59 66.36 51.59 80"/></svg>