<svg xmlns="http://www.w3.org/2000/svg" xmlns:xlink="http://www.w3.org/1999/xlink" viewBox="0 0 1000 752.04"><defs><style>.cls-1{isolation:isolate;}.cls-2{fill:#061f80;}.cls-3{fill:#15c4eb;}.cls-4{fill:#141414;}.cls-5{fill:#777b7f;}.cls-6{fill:#0db1c2;}.cls-7{fill:#191919;}.cls-8{fill:#606060;}.cls-9{fill:#2b2b2b;}.cls-10{fill:#4c4c4c;}.cls-11,.cls-22{fill:#f2f2f2;stroke-miterlimit:10;stroke-width:2px;mix-blend-mode:multiply;}.cls-11{stroke:url(#New_Gradient_Swatch_copy_3);}.cls-12{fill:#7c7c7c;}.cls-13{fill:url(#linear-gradient);}.cls-14{fill:url(#linear-gradient-2);}.cls-15{fill:#c6c6c6;}.cls-16{fill:#eaeaea;}.cls-17{fill:#232323;}.cls-18{fill:url(#linear-gradient-3);}.cls-19{fill:#fff;}.cls-20{fill:url(#linear-gradient-4);}.cls-21{fill:url(#linear-gradient-5);}.cls-22{stroke:url(#New_Gradient_Swatch_copy_3-2);}.cls-23{fill:url(#linear-gradient-6);}.cls-24{fill:url(#linear-gradient-7);}.cls-25{fill:url(#linear-gradient-8);}.cls-26{fill:url(#linear-gradient-9);}.cls-27{fill:url(#linear-gradient-10);}</style><linearGradient id="New_Gradient_Swatch_copy_3" x1="101.45" y1="515.45" x2="327.07" y2="515.45" gradientTransform="matrix(1, 0, 0, 1, -3.44, -1.49)" gradientUnits="userSpaceOnUse"><stop offset="0.31" stop-color="#20d5d2"/><stop offset="0.9" stop-color="#0f6fff"/></linearGradient><linearGradient id="linear-gradient" x1="-1732.96" y1="403.81" x2="-1770.59" y2="338.64" gradientTransform="matrix(-1, 0, 0, 1, -1502.19, -0.73)" gradientUnits="userSpaceOnUse"><stop offset="0" stop-color="#8c8c8c"/><stop offset="1" stop-color="#c6c6c6"/></linearGradient><linearGradient id="linear-gradient-2" x1="-3370.24" y1="402.68" x2="-3409.3" y2="335.02" gradientTransform="translate(3547.45 -0.73)" gradientUnits="userSpaceOnUse"><stop offset="0" stop-color="#7c7c7c"/><stop offset="1" stop-color="#b4b4b4"/></linearGradient><linearGradient id="linear-gradient-3" x1="-1713.08" y1="353.26" x2="-1629.42" y2="483.13" gradientTransform="matrix(-1, 0, 0, 1, -1502.19, -0.73)" gradientUnits="userSpaceOnUse"><stop offset="0.07" stop-color="#232323"/><stop offset="0.14" stop-color="#606060"/></linearGradient><linearGradient id="linear-gradient-4" x1="168.86" y1="490.84" x2="136.51" y2="547.49" gradientUnits="userSpaceOnUse"><stop offset="0.1" stop-color="#fff" stop-opacity="0"/><stop offset="0.9" stop-color="#15c4eb"/></linearGradient><linearGradient id="linear-gradient-5" x1="241.72" y1="482.87" x2="286.09" y2="555.22" gradientUnits="userSpaceOnUse"><stop offset="0.1" stop-color="#fff" stop-opacity="0"/><stop offset="0.72" stop-color="#15c4eb"/></linearGradient><linearGradient id="New_Gradient_Swatch_copy_3-2" x1="-2352.63" y1="508.97" x2="-2127.01" y2="508.97" gradientTransform="matrix(-1, 0, 0, 1, -1451.82, -1.49)" xlink:href="#New_Gradient_Swatch_copy_3"/><linearGradient id="linear-gradient-6" x1="775.02" y1="401.18" x2="737.29" y2="335.82" gradientTransform="matrix(1, 0, 0, 1, 0, 0)" xlink:href="#linear-gradient"/><linearGradient id="linear-gradient-7" x1="-5878.31" y1="400.77" x2="-5917.48" y2="332.92" gradientTransform="matrix(-1, 0, 0, 1, -5071.65, -0.73)" xlink:href="#linear-gradient-2"/><linearGradient id="linear-gradient-8" x1="802.21" y1="361.66" x2="818.19" y2="386.55" gradientUnits="userSpaceOnUse"><stop offset="0" stop-color="#232323"/><stop offset="0.16" stop-color="#606060"/></linearGradient><linearGradient id="linear-gradient-9" x1="-2274.54" y1="491.34" x2="-2306.89" y2="547.99" gradientTransform="matrix(-1, 0, 0, 1, -1455.28, -0.73)" gradientUnits="userSpaceOnUse"><stop offset="0.1" stop-color="#fff" stop-opacity="0"/><stop offset="0.92" stop-color="#15c4eb"/></linearGradient><linearGradient id="linear-gradient-10" x1="-2201.68" y1="483.37" x2="-2157.31" y2="555.72" gradientTransform="matrix(-1, 0, 0, 1, -1455.28, -0.73)" xlink:href="#linear-gradient-5"/></defs><g class="cls-1"><g id="Layer_1" data-name="Layer 1"><path class="cls-2" d="M555.14,19.23" transform="translate(0 -0.73)"/><path class="cls-3" d="M176.5,313.74l132.88,64.05-15,26.49L166.08,354.89c-8.9-3.43-14.54-11.59-14.3-20.68l3.08-113.29c.39-14.38,13.21-26.12,28.64-26.23h0c16.89-.11,25.78,11.25,25.35,27l-12.59,124" transform="translate(0 -0.73)"/><path class="cls-4" d="M138,178.38c13.81-6.48,21.52-14.59,25.56-19.66,23.31-29.28,14.61-71.33,10.74-90a163.88,163.88,0,0,0-6-21.43l-10.17,3.6Z" transform="translate(0 -0.73)"/><path class="cls-3" d="M94.24,180.66,44.62,209.31a30.38,30.38,0,0,0-15.25,26.24c-.09,36.42,6.37,72.29,15.51,91.76,11.92,25.36,21.05,32.34,20.43,50.8-.52,15.53-6.65,26.08-11,34.81-9.35,18.9-18.44,48.64-15,94.84A288.75,288.75,0,0,0,119.54,523c30,1.35,83.57,3.77,96.23-21.26,7.21-14.25-7.88-19.46-12.92-68.66-1.53-14.9-2.21-34.53-3.16-62.05-.28-8-.46-14.66-.58-19.25a172.47,172.47,0,0,0,10.06-75.26,174.17,174.17,0,0,0-34.84-89c-6.94-6.73-22.37-19.27-50.18-24.07Z" transform="translate(0 -0.73)"/><path class="cls-5" d="M92.44,135.85l2.08,51.55a195.65,195.65,0,0,0,23.58,14.31c12.18,6.08,25,1.33,25-10.12V148Z" transform="translate(0 -0.73)"/><path class="cls-5" d="M141.5,24.48c15.41,8.9,27.91,31.49,27.91,50.46v47.65a32.08,32.08,0,0,1-43.71,29.9l-22.16-8.61A27.34,27.34,0,0,1,87.6,127.29L69,73.07c-6.17-17.94,1.32-39.69,16.74-48.59S126.09,15.58,141.5,24.48Z" transform="translate(0 -0.73)"/><path class="cls-4" d="M143.74,163.35a112.76,112.76,0,0,0,.48,37.42c3.21,17.47,6,32.82,17.74,37.17,14,5.22,34.57-7.68,36-19.92,1.29-11.38-9.24-12.76-5.53-20.11,2.54-5,5.3-5.08,7.17-9.56,2.81-6.76-14.48-19.18-19.14-36.34-2.65-9.76,2.32-10.87,3.54-31.83.78-13.19-.71-22.27-2.75-38.53-1.8-14.4-3.86-21.7-8.5-28.82a49.6,49.6,0,0,0-8.8-10.11c12.49,31.68,12.29,57.44,11,71.57-1.44,15.85-3.33,36.53-18.09,45.22A29.37,29.37,0,0,1,143.74,163.35Z" transform="translate(0 -0.73)"/><path class="cls-6" d="M65.31,378.11" transform="translate(0 -0.73)"/><path class="cls-6" d="M210.83,240.35" transform="translate(0 -0.73)"/><polygon class="cls-7" points="29.37 642.99 253.28 513.68 448.48 622.66 224.44 752.04 29.37 642.99"/><polygon class="cls-8" points="13.27 515.29 237.18 385.99 432.38 494.96 208.34 624.35 13.27 515.29"/><polygon class="cls-9" points="22.59 589.04 13.27 515.24 208.34 624.3 217.73 698.17 22.59 589.04"/><polygon class="cls-10" points="441.67 568.63 432.38 494.92 208.34 624.3 217.73 698.17 441.67 568.63"/><polygon class="cls-11" points="207.84 575.98 318.92 510.89 208.18 446.37 98.22 511.46 207.84 575.98"/><polygon class="cls-12" points="207.87 444.77 158.34 415.36 207.87 385.76 257.58 415.27 207.87 444.77"/><polygon class="cls-13" points="311.98 372.45 207.87 306.13 207.87 347.03 207.87 393.53 240.16 414.09 311.98 372.45"/><polygon class="cls-14" points="103.77 372.45 207.87 306.13 207.87 347.03 207.87 393.53 175.59 414.09 103.77 372.45"/><polygon class="cls-15" points="311.98 479.83 311.98 372.45 207.87 432.82 207.87 540.2 311.98 479.83"/><polygon class="cls-16" points="103.77 479.83 103.77 372.45 207.87 432.82 207.87 540.2 103.77 479.83"/><polygon class="cls-10" points="311.98 479.83 311.98 372.45 207.87 432.82 207.87 540.2 311.98 479.83"/><polygon class="cls-17" points="103.77 479.83 103.77 372.45 207.87 432.82 207.87 540.2 103.77 479.83"/><polygon class="cls-8" points="207.87 306.13 311.98 372.45 254.39 405.84 152.73 341.26 207.87 306.13"/><polygon class="cls-18" points="207.87 432.64 103.77 372.28 155.82 339.12 257.58 403.82 207.87 432.64"/><path class="cls-19" d="M231.45,482.1c1.38-.8,2.32-.47,2.3.78a4.49,4.49,0,0,1-2.4,3.5c-1.39.8-2.32.44-2.31-.78A4.59,4.59,0,0,1,231.45,482.1Z" transform="translate(0 -0.73)"/><path class="cls-19" d="M243.63,458l-.06,4.7,5-2.88,0,2.27-5,2.88-.13,8.82c0,2,.64,2.79,2.57,1.67a15.22,15.22,0,0,0,2-1.36l.13,2.14a18,18,0,0,1-3.09,2.19c-1.62.93-2.93,1.24-3.75.92S240,477.8,240,475.88l.12-8.93-3,1.71,0-2.26,3-1.71.06-3.93Z" transform="translate(0 -0.73)"/><path class="cls-19" d="M266.79,449.31l3-1.76c-.09,1.23-.19,2.6-.22,4.59l-.13,9.5a14.46,14.46,0,0,1-2.83,9.05,22.94,22.94,0,0,1-7,6c-2.3,1.33-4.82,2.32-6.36,2.33l.91-2.76a13.21,13.21,0,0,0,5.59-2c3.57-2.06,6.2-5.16,6.26-9.28l0-1.83-.08.05a15.68,15.68,0,0,1-6.13,6.25c-4.75,2.74-8.1,1.26-8-3.27.08-5.55,4.35-11.13,8.75-13.67,3.32-1.92,5.12-1.48,5.93-.61l.08-.05Zm-.68,9.72,0-2.94a2.85,2.85,0,0,0-.18-1.24c-.61-1.36-2.29-1.8-4.82-.33a11.59,11.59,0,0,0-5.78,9.47c-.05,3.21,1.81,4.79,5.57,2.62a11.28,11.28,0,0,0,4.87-5.83,6.24,6.24,0,0,0,.3-1.75" transform="translate(0 -0.73)"/><path class="cls-19" d="M289.78,436l-.06,1.88L281,452.36c-.8,1.37-1.61,2.64-2.49,4v.06l11.2-6.46,0,2.37-15.56,9,0-1.73,8.8-14.64c.84-1.36,1.64-2.6,2.53-4v-.06l-10.37,6,0-2.4Z" transform="translate(0 -0.73)"/><path class="cls-3" d="M25.44,337.1l101.35,98.35L109,460,8.87,378.13C1.92,372.45-1.37,362.53.53,353L24.32,234.08c3-15.09,16.15-24.52,29.33-21.07h0c14.43,3.79,19.88,17.84,16.58,34.37l-33.9,128" transform="translate(0 -0.73)"/><path class="cls-5" d="M110.3,458c9.82,8.94,37.41,40.69,53.24,41.07s31.61-13.09,32.77-16.76,2.12-9.85-3.8-11.17S167,468,159.72,461.2,163,454.42,169,454c7.24-.51,8.31-11.31-2.24-12s-33.74,1.93-40.68-5.64Z" transform="translate(0 -0.73)"/><path class="cls-4" d="M93,149.17a78.14,78.14,0,0,0,1.74,15.05c4.62,21.54,15.18,26.15,17.76,44.4,1.26,9-2,7-3.62,25.65-2.52,28.32,4.38,37.73-2.65,49-2.8,4.47-8.61,10.5-22.31,13.94-18.46,6.92-26.6,3.35-30.2.69-14.87-11-12.87-51.36-7.74-73.48.68-2.93,3.37-14.12.39-15.72-2.61-1.41-8.29,6.6-10.22,5.5-2.52-1.43,5.49-16.06,8.93-29.87,7.72-31.09-10.83-41.06-5.34-77.66C41,98,43.89,89.24,49.65,71.72,56,52.54,59.1,42.94,63.83,36.87c17.75-22.8,49.77-23,51.61-22.94,20.45.2,38.19,9.75,48.61,21.31a46.84,46.84,0,0,1,9.45,15.42c1.51,4.14,6.85,18.19.42,25.5-2.14,2.43-5.76,4.32-13.9,4.53-19.49.5-36.39-9.42-46.24-16.6-4.52,15.73-12.21,23.67-16.57,27.34C94,94.17,89.86,97.21,86,96.17c-1.72-.47-3.77-2.53-5-9.91-2.47-1.64-3.63-1.46-4.2-1.13-2.69,1.52,0,10.61.58,12.63q5.09,14.76,10.15,29.53a26.9,26.9,0,0,0,4.85,8.56Z" transform="translate(0 -0.73)"/><path class="cls-5" d="M81.06,86.25c-4.2-3-6.28-2.84-7.39-2.27-4.22,2.17-2.81,14.83,2,23.68.93,1.71,5.31,9.81,9.72,9.08a5.08,5.08,0,0,0,3.09-2.19Z" transform="translate(0 -0.73)"/><polygon class="cls-20" points="104.13 511.46 104.13 454.22 207.87 513.45 207.87 572.5 104.13 511.46"/><polygon class="cls-21" points="312.97 510.95 312.64 453.7 207.87 513.45 207.87 572.5 312.97 510.95"/><path class="cls-3" d="M898.19,179.53l49.07,32c9.29,6.06,15,17.19,15.07,29.31.08,35.32-3.1,68.74-15.34,102.51-9.64,26.61-16.65,36.55-18.47,60-1,13.15-.08,26.13.65,36.08a367,367,0,0,0,6.52,47.14c-11.41,6.92-39.72,21.87-77.33,18.62-31.25-2.7-53.88-16.67-64.77-24.51,1.67-20.87,3.61-52.43,3.61-91.07,0-32.14-1.42-33.9-1.42-60.27,0-54.11.49-115.52,23.22-142.24,19.1-22.44,49.62-26.88,49.62-26.88Z" transform="translate(0 -0.73)"/><path class="cls-5" d="M900,132.7l-2.05,51.54a193.69,193.69,0,0,1-23.32,14.31c-12,6.09-24.75,1.34-24.75-10.12V144.85Z" transform="translate(0 -0.73)"/><path class="cls-5" d="M851.46,21.33c-15.24,8.89-27.59,31.49-27.59,50.46v47.65c0,22.56,22.42,38.07,43.22,29.9l21.9-8.62a27.18,27.18,0,0,0,15.77-16.59L923.2,69.92c6.1-17.94-1.31-39.7-16.55-48.59S866.7,12.43,851.46,21.33Z" transform="translate(0 -0.73)"/><path class="cls-4" d="M921.45,37.38a86.38,86.38,0,0,1,6.85,30.67c.89,18.79,0,27.63-3.58,36.31-1.77,4.78-8.41,11.77-12.08,15.91-8.16,9.24-11.69,26.87-12.82,25.74l.55-13.31a26.52,26.52,0,0,0,5-8.57c3.48-9.83,5.41-20.37,8.89-30.21.63-2,4.91-10.42,2.15-12-.59-.32-1.79-.5-4.32,1.13-2.6.9-7.13,11.63-9.3,9.82-1.17-1-3.76-12.81-4.81-18.24C895,59.4,872.8,62.1,857.68,60.51c0,0-32.88-2.14-33.22,2.76-.24,3.59-.59,18.67-.59,22.9,0,0-15.56-30.25-10.77-43.43a81.32,81.32,0,0,1,22.48-32.55c7.58-6.84,12.67-14.84,31.56-4.53C881,13.22,887.64,11.83,902,17.29,919.5,24,921.45,37.38,921.45,37.38Z" transform="translate(0 -0.73)"/><path class="cls-5" d="M911.22,83.1c2.19-5.46,9.12-5.55,13.45-1.81,4.51,3.89,5.77,20.66-4.76,29s-16,1.14-16,1.14Z" transform="translate(0 -0.73)"/><path class="cls-2" d="M905.7-1.14" transform="translate(0 -0.73)"/><path class="cls-3" d="M822.64,313.52,689.12,377.57l15.09,26.49,128.9-49.4c8.95-3.43,14.62-11.59,14.37-20.67l-3.09-113.3c-.39-14.38-13.28-26.12-28.78-26.22h0c-17-.12-25.91,11.24-25.48,27l12.65,124" transform="translate(0 -0.73)"/><path class="cls-6" d="M934.37,377.88" transform="translate(0 -0.73)"/><path class="cls-6" d="M788.15,240.13" transform="translate(0 -0.73)"/><polygon class="cls-7" points="970.49 642.76 745.49 513.45 549.34 622.43 774.47 751.82 970.49 642.76"/><polygon class="cls-8" points="986.66 515.07 761.67 385.76 565.51 494.74 790.65 624.12 986.66 515.07"/><polygon class="cls-10" points="977.3 588.81 986.66 515.02 790.65 624.07 781.21 697.95 977.3 588.81"/><polygon class="cls-9" points="556.18 568.4 565.51 494.69 790.65 624.07 781.21 697.95 556.18 568.4"/><polygon class="cls-22" points="791.14 575.76 679.53 510.67 790.81 446.14 901.31 511.23 791.14 575.76"/><polygon class="cls-12" points="790.51 442.98 840.4 413.49 790.51 383.81 740.45 413.39 790.51 442.98"/><polygon class="cls-23" points="685.66 370.45 790.51 303.95 790.51 344.96 790.51 391.59 757.99 412.21 685.66 370.45"/><polygon class="cls-24" points="895.36 370.45 790.51 303.95 790.51 344.96 790.51 391.59 823.03 412.21 895.36 370.45"/><polygon class="cls-16" points="895.36 478.13 895.36 370.45 790.51 430.99 790.51 538.67 895.36 478.13"/><polygon class="cls-17" points="685.66 478.13 685.66 370.45 790.51 430.99 790.51 538.67 685.66 478.13"/><polygon class="cls-10" points="895.36 478.13 895.36 370.45 790.51 430.99 790.51 538.67 895.36 478.13"/><polygon class="cls-8" points="790.51 303.95 685.66 370.45 743.66 403.94 846.05 339.18 790.51 303.95"/><polygon class="cls-25" points="790.51 430.82 895.36 370.28 842.94 337.03 740.45 401.91 790.51 430.82"/><path class="cls-19" d="M707.64,445.89a4.58,4.58,0,0,1,2.43,3.52c0,1.22-.91,1.6-2.41.73a4.67,4.67,0,0,1-2.44-3.53C705.2,445.35,706.21,445.06,707.64,445.89Z" transform="translate(0 -0.73)"/><path class="cls-19" d="M719.71,435.77l.07,4.71,5.14,3,0,2.27-5.14-3,.12,8.86a5.05,5.05,0,0,0,2.74,4.74,13.14,13.14,0,0,0,2.08,1l.19,2.33a13.61,13.61,0,0,1-3.17-1.43,11.73,11.73,0,0,1-3.9-3.49,8.73,8.73,0,0,1-1.44-5.07l-.12-9L713.24,439l0-2.27,3.07,1.77-.06-3.93Z" transform="translate(0 -0.73)"/><path class="cls-19" d="M743.72,454.31l3.14,1.81c-.06,1.14-.13,2.42-.1,4.42l.13,9.53c.05,3.76-.81,5.54-2.71,5.86s-4.66-.74-7.15-2.17a28.74,28.74,0,0,1-6.58-5.15l.86-1.75a25.55,25.55,0,0,0,5.81,4.63c3.67,2.12,6.34,2.08,6.29-2.06l0-1.83-.08-.05c-1.08.89-3.19.89-6.24-.88-4.9-2.82-8.46-8.3-8.52-12.85-.08-5.56,4.25-6.19,8.77-3.58a15.06,15.06,0,0,1,6.2,6.41l.08,0Zm-.44,9.09,0-2.95A4.68,4.68,0,0,0,743,459a11.44,11.44,0,0,0-5.06-6.05c-3.43-2-5.84-1-5.79,2.82a11.33,11.33,0,0,0,5.91,9.26c2.2,1.27,4.19,1.28,4.94-.17a3.49,3.49,0,0,0,.26-1.44" transform="translate(0 -0.73)"/><path class="cls-19" d="M767.42,468v1.84l-8.69,4.44a17,17,0,0,1-2.49,1.12v.07l11.55,6.66,0,2.37-16-9.25,0-1.73,8.8-4.51c.85-.39,1.65-.69,2.54-1.05v-.07l-10.69-6.17,0-2.41Z" transform="translate(0 -0.73)"/><path class="cls-3" d="M974.44,336.87,872.59,435.23l17.84,24.49L991.09,377.9c7-5.68,10.29-15.6,8.37-25.14l-23.9-118.91c-3-15.09-16.23-24.52-29.47-21.06h0c-14.5,3.78-20,17.84-16.66,34.37l34.06,128" transform="translate(0 -0.73)"/><path class="cls-5" d="M889.17,457.72c-9.88,8.95-37.6,40.7-53.51,41.08S803.9,485.7,802.73,482s-2.12-9.85,3.83-11.18,25.64-3.14,32.94-9.88-3.28-6.78-9.29-7.21c-7.27-.51-8.35-11.3,2.25-12s33.9,1.93,40.88-5.63Z" transform="translate(0 -0.73)"/><polygon class="cls-26" points="895.36 511.24 895.36 453.99 791.12 513.22 791.12 572.27 895.36 511.24"/><polygon class="cls-27" points="685.51 510.72 685.84 453.47 791.12 513.22 791.12 572.27 685.51 510.72"/></g></g></svg>