<svg xmlns="http://www.w3.org/2000/svg" xmlns:xlink="http://www.w3.org/1999/xlink" viewBox="0 0 1000 752.04"><defs><style>.cls-1{isolation:isolate;}.cls-2{fill:#061f80;}.cls-3{fill:#15c4eb;}.cls-4{fill:#e9f3ff;}.cls-5{fill:#0db1c2;}.cls-6{fill:url(#linear-gradient);}.cls-7{fill:url(#linear-gradient-2);}.cls-8{fill:#fff;}.cls-9{fill:#dcdcdc;}.cls-10,.cls-17,.cls-23{fill:#f2f2f2;}.cls-10,.cls-23{stroke-miterlimit:10;stroke-width:2px;mix-blend-mode:multiply;}.cls-10{stroke:url(#New_Gradient_Swatch_copy_3);}.cls-11{fill:#7c7c7c;}.cls-12{fill:url(#linear-gradient-3);}.cls-13{fill:url(#linear-gradient-4);}.cls-14{fill:#c6c6c6;}.cls-15{fill:#eaeaea;}.cls-16{fill:#b3b3b3;}.cls-18{fill:url(#linear-gradient-5);}.cls-19{fill:url(#New_Gradient_Swatch_2_copy);}.cls-20{fill:url(#linear-gradient-6);}.cls-21{fill:url(#linear-gradient-7);}.cls-22{fill:url(#linear-gradient-8);}.cls-23{stroke:url(#New_Gradient_Swatch_copy_3-2);}.cls-24{fill:url(#linear-gradient-9);}.cls-25{fill:url(#linear-gradient-10);}.cls-26{fill:url(#linear-gradient-11);}.cls-27{fill:url(#New_Gradient_Swatch_2_copy-2);}.cls-28{fill:url(#linear-gradient-12);}</style><linearGradient id="linear-gradient" x1="29.37" y1="632.86" x2="448.48" y2="632.86" gradientUnits="userSpaceOnUse"><stop offset="0" stop-color="#fff"/><stop offset="1" stop-color="#f3f3f3"/></linearGradient><linearGradient id="linear-gradient-2" x1="13.27" y1="505.17" x2="432.38" y2="505.17" xlink:href="#linear-gradient"/><linearGradient id="New_Gradient_Swatch_copy_3" x1="105.38" y1="516.6" x2="323.17" y2="516.6" gradientTransform="matrix(1, 0, 0, 1, -3.44, -2.63)" gradientUnits="userSpaceOnUse"><stop offset="0.31" stop-color="#20d5d2"/><stop offset="0.9" stop-color="#0f6fff"/></linearGradient><linearGradient id="linear-gradient-3" x1="-1732.96" y1="404.95" x2="-1770.59" y2="339.77" gradientTransform="matrix(-1, 0, 0, 1, -1502.19, -1.86)" gradientUnits="userSpaceOnUse"><stop offset="0" stop-color="#8c8c8c"/><stop offset="1" stop-color="#c6c6c6"/></linearGradient><linearGradient id="linear-gradient-4" x1="-3370.24" y1="403.82" x2="-3409.3" y2="336.16" gradientTransform="translate(3547.45 -1.86)" gradientUnits="userSpaceOnUse"><stop offset="0" stop-color="#7c7c7c"/><stop offset="1" stop-color="#b4b4b4"/></linearGradient><linearGradient id="linear-gradient-5" x1="-1720.53" y1="342.06" x2="-1637.82" y2="472.54" gradientTransform="matrix(-1, 0, 0, 1, -1502.19, -1.86)" gradientUnits="userSpaceOnUse"><stop offset="0.07" stop-color="#999"/><stop offset="0.23" stop-color="#f3f3f3"/></linearGradient><linearGradient id="New_Gradient_Swatch_2_copy" x1="168.86" y1="490.84" x2="136.51" y2="547.49" gradientUnits="userSpaceOnUse"><stop offset="0.1" stop-color="#20d5d2" stop-opacity="0"/><stop offset="0.9" stop-color="#408bfc" stop-opacity="0.8"/></linearGradient><linearGradient id="linear-gradient-6" x1="241.72" y1="482.87" x2="286.09" y2="555.22" gradientUnits="userSpaceOnUse"><stop offset="0.1" stop-color="#20d5d2" stop-opacity="0"/><stop offset="0.72" stop-color="#408bfc" stop-opacity="0.8"/></linearGradient><linearGradient id="linear-gradient-7" x1="-2414.03" y1="634.5" x2="-1994.92" y2="634.5" gradientTransform="matrix(-1, 0, 0, 1, -1455.28, -1.86)" xlink:href="#linear-gradient"/><linearGradient id="linear-gradient-8" x1="-2430.13" y1="506.8" x2="-2011.02" y2="506.8" gradientTransform="matrix(-1, 0, 0, 1, -1455.28, -1.86)" xlink:href="#linear-gradient"/><linearGradient id="New_Gradient_Swatch_copy_3-2" x1="-2352.63" y1="510.11" x2="-2130.9" y2="510.11" gradientTransform="matrix(-0.98, 0, 0, 0.98, -1413.62, 6.71)" xlink:href="#New_Gradient_Swatch_copy_3"/><linearGradient id="linear-gradient-9" x1="775.67" y1="406.23" x2="738.04" y2="341.06" gradientTransform="matrix(1, 0, 0, 1, 0, 0)" xlink:href="#linear-gradient-3"/><linearGradient id="linear-gradient-10" x1="-5878.87" y1="406.96" x2="-5917.93" y2="339.31" gradientTransform="matrix(-1, 0, 0, 1, -5071.65, -1.86)" xlink:href="#linear-gradient-4"/><linearGradient id="linear-gradient-11" x1="788.1" y1="343.34" x2="870.81" y2="473.82" gradientTransform="matrix(1, 0, 0, 1, 0, 0)" xlink:href="#linear-gradient-5"/><linearGradient id="New_Gradient_Swatch_2_copy-2" x1="-2274.54" y1="492.47" x2="-2306.89" y2="549.12" gradientTransform="matrix(-1, 0, 0, 1, -1455.28, -1.86)" xlink:href="#New_Gradient_Swatch_2_copy"/><linearGradient id="linear-gradient-12" x1="-2201.68" y1="484.51" x2="-2157.31" y2="556.86" gradientTransform="matrix(-1, 0, 0, 1, -1455.28, -1.86)" xlink:href="#linear-gradient-6"/></defs><g class="cls-1"><g id="Layer_1" data-name="Layer 1"><path class="cls-2" d="M555.14,20.37" transform="translate(0 -1.86)"/><path class="cls-3" d="M176.5,314.88l132.88,64.05-15,26.49L166.08,356c-8.9-3.42-14.54-11.58-14.3-20.67l3.08-113.3c.39-14.38,13.21-26.12,28.64-26.22h0c16.89-.12,25.78,11.25,25.35,27l-12.59,124" transform="translate(0 -1.86)"/><path class="cls-2" d="M138,179.52c13.81-6.49,21.52-14.59,25.56-19.66,23.31-29.29,14.61-71.33,10.74-90a163,163,0,0,0-6-21.43L158.14,52Z" transform="translate(0 -1.86)"/><path class="cls-3" d="M94.24,181.79,44.62,210.45a30.38,30.38,0,0,0-15.25,26.24c-.09,36.42,6.37,72.28,15.51,91.76,11.92,25.35,21.05,32.33,20.43,50.79-.52,15.54-6.65,26.09-11,34.82C45,433,35.9,462.7,39.39,508.9a288.43,288.43,0,0,0,80.15,15.22c30,1.36,83.57,3.78,96.23-21.25,7.21-14.25-7.88-19.46-12.92-68.66-1.53-14.9-2.21-34.54-3.16-62-.28-8-.46-14.66-.58-19.25a172.47,172.47,0,0,0,10.06-75.26,174.26,174.26,0,0,0-34.84-89.06c-6.94-6.73-22.37-19.26-50.18-24.06Z" transform="translate(0 -1.86)"/><path class="cls-4" d="M92.44,137l2.08,51.54a196.48,196.48,0,0,0,23.58,14.32c12.18,6.08,25,1.33,25-10.13V149.14Z" transform="translate(0 -1.86)"/><path class="cls-4" d="M141.5,25.62c15.41,8.9,27.91,31.49,27.91,50.46v47.65a32.08,32.08,0,0,1-43.71,29.9L103.54,145a27.33,27.33,0,0,1-15.94-16.6L69,74.21c-6.17-17.94,1.32-39.69,16.74-48.59S126.09,16.72,141.5,25.62Z" transform="translate(0 -1.86)"/><path class="cls-2" d="M143.74,164.48a112.77,112.77,0,0,0,.48,37.42c3.21,17.48,6,32.83,17.74,37.18,14,5.21,34.57-7.69,36-19.92,1.29-11.38-9.24-12.76-5.53-20.12,2.54-5,5.3-5.07,7.17-9.56,2.81-6.76-14.48-19.18-19.14-36.33-2.65-9.76,2.32-10.87,3.54-31.83.78-13.19-.71-22.27-2.75-38.53-1.8-14.4-3.86-21.7-8.5-28.82a49.32,49.32,0,0,0-8.8-10.11c12.49,31.68,12.29,57.44,11,71.56-1.44,15.86-3.33,36.54-18.09,45.22A29.12,29.12,0,0,1,143.74,164.48Z" transform="translate(0 -1.86)"/><path class="cls-5" d="M65.31,379.24" transform="translate(0 -1.86)"/><path class="cls-5" d="M210.83,241.49" transform="translate(0 -1.86)"/><polygon class="cls-6" points="29.37 642.99 253.28 513.68 448.48 622.66 224.44 752.04 29.37 642.99"/><polygon class="cls-7" points="13.27 515.29 237.18 385.99 432.38 494.96 208.34 624.35 13.27 515.29"/><polygon class="cls-8" points="22.59 589.04 13.27 515.24 208.34 624.3 217.73 698.17 22.59 589.04"/><polygon class="cls-9" points="441.67 568.63 432.38 494.92 208.34 624.3 217.73 698.17 441.67 568.63"/><polygon class="cls-10" points="207.88 573.7 315.04 510.9 208.2 448.66 102.13 511.45 207.88 573.7"/><polygon class="cls-11" points="207.87 444.77 158.34 415.36 207.87 385.76 257.58 415.27 207.87 444.77"/><polygon class="cls-12" points="311.98 372.45 207.87 306.13 207.87 347.03 207.87 393.53 240.16 414.09 311.98 372.45"/><polygon class="cls-13" points="103.77 372.45 207.87 306.13 207.87 347.03 207.87 393.53 175.59 414.09 103.77 372.45"/><polygon class="cls-14" points="311.98 479.83 311.98 372.45 207.87 432.82 207.87 540.2 311.98 479.83"/><polygon class="cls-15" points="103.77 479.83 103.77 372.45 207.87 432.82 207.87 540.2 103.77 479.83"/><polygon class="cls-16" points="311.98 479.83 311.98 372.45 207.87 432.82 207.87 540.2 311.98 479.83"/><polygon class="cls-9" points="103.77 479.83 103.77 372.45 207.87 432.82 207.87 540.2 103.77 479.83"/><polygon class="cls-17" points="207.87 306.13 311.98 372.45 254.39 405.84 152.73 341.26 207.87 306.13"/><polygon class="cls-18" points="207.87 432.64 103.77 372.28 155.82 339.12 257.58 403.82 207.87 432.64"/><path class="cls-8" d="M231.45,483.24c1.38-.8,2.32-.47,2.3.78a4.5,4.5,0,0,1-2.4,3.5c-1.39.8-2.32.44-2.31-.78A4.59,4.59,0,0,1,231.45,483.24Z" transform="translate(0 -1.86)"/><path class="cls-8" d="M243.63,459.16l-.06,4.7,5-2.88,0,2.27-5,2.88-.13,8.83c0,2,.64,2.78,2.57,1.67a16.12,16.12,0,0,0,2-1.37l.13,2.13a17.42,17.42,0,0,1-3.09,2.19c-1.62.94-2.93,1.26-3.74.92-1-.31-1.32-1.55-1.29-3.48l.12-8.93-3,1.72,0-2.27,3-1.72.06-3.92Z" transform="translate(0 -1.86)"/><path class="cls-8" d="M266.79,450.45l3-1.76c-.09,1.23-.19,2.6-.22,4.59l-.13,9.5a14.46,14.46,0,0,1-2.83,9.05,23.26,23.26,0,0,1-7,6c-2.3,1.32-4.82,2.31-6.36,2.32l.91-2.77a13.06,13.06,0,0,0,5.59-2c3.57-2.05,6.2-5.15,6.26-9.28l0-1.82-.08,0a15.69,15.69,0,0,1-6.13,6.26c-4.75,2.74-8.1,1.26-8-3.27.08-5.55,4.35-11.14,8.75-13.68,3.32-1.91,5.12-1.48,5.93-.6l.08-.05Zm-.68,9.72,0-2.94A2.83,2.83,0,0,0,266,456c-.61-1.36-2.29-1.79-4.82-.33a11.58,11.58,0,0,0-5.78,9.47c-.05,3.22,1.81,4.79,5.57,2.62a11.28,11.28,0,0,0,4.87-5.83,5.9,5.9,0,0,0,.3-1.75" transform="translate(0 -1.86)"/><path class="cls-8" d="M289.78,437.18l-.06,1.88L281,453.5c-.8,1.36-1.61,2.64-2.49,4v.07l11.2-6.47,0,2.37-15.56,9,0-1.72,8.8-14.64c.84-1.36,1.64-2.6,2.53-4V442l-10.37,6,0-2.41Z" transform="translate(0 -1.86)"/><path class="cls-3" d="M25.44,338.23l101.35,98.36L109,461.09,8.87,379.27c-6.95-5.68-10.24-15.6-8.34-25.14L24.32,235.22c3-15.1,16.15-24.53,29.33-21.07h0c14.43,3.79,19.88,17.84,16.58,34.37l-33.9,128" transform="translate(0 -1.86)"/><path class="cls-4" d="M110.3,459.09c9.82,8.94,37.41,40.69,53.24,41.07s31.61-13.09,32.77-16.76,2.12-9.85-3.8-11.17-25.52-3.15-32.79-9.89,3.26-6.78,9.25-7.21c7.24-.51,8.31-11.3-2.24-12s-33.74,1.93-40.68-5.64Z" transform="translate(0 -1.86)"/><path class="cls-2" d="M93,150.3a78.14,78.14,0,0,0,1.74,15.06c4.62,21.53,15.18,26.15,17.76,44.4,1.26,9-2,7-3.62,25.65-2.52,28.32,4.38,37.73-2.65,49-2.8,4.48-8.61,10.51-22.31,13.94-18.46,6.93-26.6,3.36-30.2.7C38.83,288,40.83,247.64,46,225.52c.68-2.94,3.37-14.12.39-15.73-2.61-1.41-8.29,6.61-10.22,5.51-2.52-1.43,5.49-16.06,8.93-29.88,7.72-31.08-10.83-41-5.34-77.66,1.29-8.63,4.17-17.39,9.93-34.9C56,53.67,59.1,44.08,63.83,38c17.75-22.8,49.77-23,51.61-22.94,20.45.19,38.19,9.75,48.61,21.31A46.84,46.84,0,0,1,173.5,51.8c1.51,4.14,6.85,18.19.42,25.5-2.14,2.43-5.76,4.32-13.9,4.53-19.49.5-36.39-9.42-46.24-16.6C109.26,81,101.57,88.9,97.21,92.56,94,95.31,89.86,98.35,86,97.3c-1.72-.46-3.77-2.53-5-9.91-2.47-1.63-3.63-1.45-4.2-1.13-2.69,1.53,0,10.62.58,12.64q5.09,14.76,10.15,29.53A26.9,26.9,0,0,0,92.44,137Z" transform="translate(0 -1.86)"/><path class="cls-4" d="M81.06,87.39c-4.2-3-6.28-2.84-7.39-2.27-4.22,2.17-2.81,14.82,2,23.68.93,1.7,5.31,9.81,9.72,9.08a5.09,5.09,0,0,0,3.09-2.2Z" transform="translate(0 -1.86)"/><polygon class="cls-19" points="104.13 511.46 104.13 454.22 207.87 513.45 207.87 572.5 104.13 511.46"/><polygon class="cls-20" points="312.97 510.95 312.64 453.7 207.87 513.45 207.87 572.5 312.97 510.95"/><path class="cls-3" d="M898.19,181.76l49.07,33.83c9.29,6.4,15,18.17,15.07,31,.08,37.32-3.1,72.64-15.34,108.34-9.64,28.12-16.65,38.62-18.47,63.41-1,13.9-.08,27.62.65,38.14a408.33,408.33,0,0,0,6.52,49.81C924.28,513.59,896,529.39,858.36,526c-31.25-2.85-53.88-17.61-64.77-25.9,1.67-22.06,3.61-55.41,3.61-96.25,0-34-1.42-35.83-1.42-63.69,0-57.19.49-122.09,23.22-150.32,19.1-23.73,49.62-28.41,49.62-28.41Z" transform="translate(0 -1.86)"/><path class="cls-4" d="M900,133.84l-2.05,51.54a193.69,193.69,0,0,1-23.32,14.31c-12,6.09-24.75,1.34-24.75-10.12V146Z" transform="translate(0 -1.86)"/><path class="cls-4" d="M851.46,22.46c-15.24,8.9-27.59,31.49-27.59,50.47v47.64c0,22.57,22.42,38.08,43.22,29.91l21.9-8.62a27.2,27.2,0,0,0,15.77-16.59L923.2,71.06c6.1-17.94-1.31-39.7-16.55-48.6S866.7,13.56,851.46,22.46Z" transform="translate(0 -1.86)"/><path class="cls-2" d="M920.24,38.52a89.34,89.34,0,0,1,6.58,30.67c.86,18.79,0,27.63-3.44,36.3-1.7,4.79-8.09,11.77-11.61,15.92-7.85,9.23-11.25,26.86-12.33,25.74l.53-13.31a26.75,26.75,0,0,0,4.79-8.57l10-29.52c.61-2,3.23-11.12.58-12.64-.57-.33-1.72-.5-4.16,1.13-2.49.9-6.85,11.62-8.93,9.81-1.13-1-3.62-12.81-4.63-18.24-2.83-15.27-24.21-12.58-38.74-14.16,0,0-29.09-1.15-31.95,2.76s-3.1,18.1-3.1,22.32c0,0-12.43-29.67-7.82-42.85a81.58,81.58,0,0,1,21.61-32.56C845,4.49,849.85-3.51,868,6.79c13.32,7.57,19.72,6.18,33.48,11.64C918.36,25.13,920.24,38.52,920.24,38.52Z" transform="translate(0 -1.86)"/><path class="cls-4" d="M911.22,84.24c2.19-5.46,9.12-5.55,13.45-1.81,4.51,3.89,5.77,20.66-4.76,29s-16,1.14-16,1.14Z" transform="translate(0 -1.86)"/><path class="cls-2" d="M905.7,0" transform="translate(0 -1.86)"/><path class="cls-3" d="M822.64,314.66l-133.52,64,15.09,26.49,128.9-49.4c8.95-3.43,14.62-11.59,14.37-20.68l-3.09-113.29c-.39-14.38-13.28-26.12-28.78-26.23h0c-17-.11-25.91,11.25-25.48,27l12.65,124" transform="translate(0 -1.86)"/><path class="cls-5" d="M934.37,379" transform="translate(0 -1.86)"/><path class="cls-5" d="M788.15,241.26" transform="translate(0 -1.86)"/><polygon class="cls-21" points="970.49 642.76 745.49 513.45 549.34 622.43 774.47 751.82 970.49 642.76"/><polygon class="cls-22" points="986.66 515.07 761.67 385.76 565.51 494.74 790.65 624.12 986.66 515.07"/><polygon class="cls-8" points="977.3 588.81 986.66 515.02 790.65 624.07 781.21 697.95 977.3 588.81"/><polygon class="cls-9" points="556.18 568.4 565.51 494.69 790.65 624.07 781.21 697.95 556.18 568.4"/><polygon class="cls-23" points="791.12 573.47 683.43 510.68 790.81 448.41 897.41 511.2 791.12 573.47"/><polygon class="cls-11" points="791.12 447.91 840.87 418.51 791.12 388.91 741.19 418.41 791.12 447.91"/><polygon class="cls-24" points="686.56 375.59 791.12 309.28 791.12 350.18 791.12 396.67 758.69 417.24 686.56 375.59"/><polygon class="cls-25" points="895.67 375.59 791.12 309.28 791.12 350.18 791.12 396.67 823.55 417.24 895.67 375.59"/><polygon class="cls-14" points="686.56 482.97 686.56 375.59 791.12 435.96 791.12 543.34 686.56 482.97"/><polygon class="cls-15" points="895.67 482.97 895.67 375.59 791.12 435.96 791.12 543.34 895.67 482.97"/><polygon class="cls-16" points="686.56 482.97 686.56 375.59 791.12 435.96 791.12 543.34 686.56 482.97"/><polygon class="cls-9" points="895.67 482.97 895.67 375.59 791.12 435.96 791.12 543.34 895.67 482.97"/><polygon class="cls-17" points="791.12 309.28 686.56 375.59 744.4 408.99 846.5 344.4 791.12 309.28"/><polygon class="cls-26" points="791.12 435.79 895.67 375.42 843.4 342.26 741.19 406.96 791.12 435.79"/><path class="cls-8" d="M708.48,452a4.58,4.58,0,0,1,2.42,3.52c0,1.21-.91,1.58-2.41.71a4.64,4.64,0,0,1-2.43-3.51C706.05,451.43,707.05,451.14,708.48,452Z" transform="translate(0 -1.86)"/><path class="cls-8" d="M720.52,441.87l.06,4.7,5.13,3,0,2.27-5.13-3,.13,8.82a5,5,0,0,0,2.73,4.74,12.21,12.21,0,0,0,2.07,1l.19,2.33a13.18,13.18,0,0,1-3.17-1.43,11.42,11.42,0,0,1-3.88-3.48,8.66,8.66,0,0,1-1.44-5.06l-.12-8.92-3-1.76,0-2.27,3.05,1.76-.06-3.92Z" transform="translate(0 -1.86)"/><path class="cls-8" d="M744.46,460.35l3.13,1.81c-.06,1.14-.13,2.41-.1,4.41l.13,9.5c0,3.75-.81,5.53-2.7,5.85s-4.66-.74-7.13-2.17a28.9,28.9,0,0,1-6.57-5.13l.86-1.75a25.46,25.46,0,0,0,5.8,4.62c3.66,2.11,6.32,2.07,6.26-2.05l0-1.83-.08-.05c-1.08.89-3.18.89-6.23-.87-4.88-2.82-8.43-8.29-8.49-12.82-.08-5.55,4.23-6.18,8.75-3.57a15.2,15.2,0,0,1,6.18,6.38l.08.05Zm-.44,9.08,0-2.95a4.37,4.37,0,0,0-.23-1.46,11.31,11.31,0,0,0-5-6c-3.42-2-5.82-1-5.77,2.81a11.32,11.32,0,0,0,5.89,9.24c2.2,1.27,4.18,1.27,4.92-.18a3.08,3.08,0,0,0,.27-1.42" transform="translate(0 -1.86)"/><path class="cls-8" d="M768.09,474l0,1.83-8.65,4.44a18.65,18.65,0,0,1-2.49,1.11v.07l11.5,6.64,0,2.37-16-9.23,0-1.72,8.77-4.5c.84-.39,1.64-.7,2.53-1.06v-.06l-10.66-6.16,0-2.4Z" transform="translate(0 -1.86)"/><path class="cls-3" d="M974.44,338,872.59,436.36l17.84,24.5L991.09,379c7-5.68,10.29-15.6,8.37-25.14L975.56,235c-3-15.09-16.23-24.52-29.47-21.07h0c-14.5,3.79-20,17.84-16.66,34.37l34.06,128" transform="translate(0 -1.86)"/><path class="cls-4" d="M889.17,458.86c-9.88,8.95-37.6,40.7-53.51,41.08s-31.76-13.1-32.93-16.77-2.12-9.84,3.83-11.17,25.64-3.14,32.94-9.88-3.28-6.78-9.29-7.21c-7.27-.51-8.35-11.31,2.25-12s33.9,1.93,40.88-5.64Z" transform="translate(0 -1.86)"/><polygon class="cls-27" points="895.36 511.24 895.36 453.99 791.12 513.22 791.12 572.27 895.36 511.24"/><polygon class="cls-28" points="685.51 510.72 685.84 453.47 791.12 513.22 791.12 572.27 685.51 510.72"/></g></g></svg>