<svg id="Layer_1" data-name="Layer 1" xmlns="http://www.w3.org/2000/svg" xmlns:xlink="http://www.w3.org/1999/xlink" viewBox="0 0 830.96 504.22"><defs><style>.cls-1{fill:#15c4eb;}.cls-2{fill:#002664;}.cls-3{fill:#061f80;}.cls-28,.cls-4{fill:none;}.cls-4{stroke:#002664;stroke-width:1.27px;}.cls-20,.cls-4,.cls-6,.cls-7{stroke-miterlimit:10;}.cls-5{fill:#e9f3ff;}.cls-6{stroke:#f6f9ff;opacity:0.65;fill:url(#linear-gradient);}.cls-20,.cls-7{fill:#f6f9ff;}.cls-7{stroke:url(#linear-gradient-2);}.cls-8{fill:#a5b7c6;}.cls-9{isolation:isolate;}.cls-10{fill:url(#linear-gradient-3);}.cls-11{fill:url(#linear-gradient-4);}.cls-12{fill:#dcdcdc;}.cls-13{fill:#fd5e60;}.cls-14{fill:url(#linear-gradient-5);}.cls-15{fill:#3b2cd6;}.cls-16{fill:url(#linear-gradient-6);}.cls-17{fill:url(#linear-gradient-7);}.cls-18{fill:#c6c6c6;}.cls-19{fill:url(#New_Gradient_Swatch_2);}.cls-20{stroke:url(#linear-gradient-8);}.cls-21{fill:#8f9eab;}.cls-22{fill:url(#linear-gradient-9);}.cls-23{fill:#373d42;}.cls-24{fill:#d2e4fe;}.cls-25{fill:#f4f8f9;}.cls-26,.cls-29,.cls-31{opacity:0.8;}.cls-26{fill:url(#linear-gradient-10);}.cls-27{fill:url(#linear-gradient-11);}.cls-28{stroke:#fff;stroke-linecap:round;stroke-linejoin:round;stroke-width:3.46px;}.cls-29{fill:url(#linear-gradient-12);}.cls-30{fill:url(#linear-gradient-13);}.cls-31{fill:url(#linear-gradient-14);}.cls-32{fill:url(#linear-gradient-15);}</style><linearGradient id="linear-gradient" x1="135.48" y1="128.24" x2="283.35" y2="128.24" gradientUnits="userSpaceOnUse"><stop offset="0.1" stop-color="#20d5d2" stop-opacity="0.5"/><stop offset="0.93" stop-color="#408bfc" stop-opacity="0.4"/></linearGradient><linearGradient id="linear-gradient-2" x1="116.83" y1="137.83" x2="268.49" y2="137.83" xlink:href="#linear-gradient"/><linearGradient id="linear-gradient-3" x1="7184.08" y1="196.67" x2="7264.06" y2="199.7" gradientTransform="matrix(-1, 0, 0, 1, 8016.57, 0)" gradientUnits="userSpaceOnUse"><stop offset="0" stop-color="#f3f3f3"/><stop offset="1" stop-color="#dcdcdc"/></linearGradient><linearGradient id="linear-gradient-4" x1="7185" y1="217.83" x2="7253.79" y2="217.83" xlink:href="#linear-gradient-3"/><linearGradient id="linear-gradient-5" x1="7185" y1="237.36" x2="7253.79" y2="237.36" xlink:href="#linear-gradient-3"/><linearGradient id="linear-gradient-6" x1="7185.66" y1="64.31" x2="7405.33" y2="64.31" gradientTransform="matrix(-1, 0, 0, 1, 8016.57, 0)" gradientUnits="userSpaceOnUse"><stop offset="0" stop-color="#fff"/><stop offset="1" stop-color="#f3f3f3"/></linearGradient><linearGradient id="linear-gradient-7" x1="662.86" y1="168.97" x2="687.75" y2="137.16" gradientUnits="userSpaceOnUse"><stop offset="0" stop-color="#8c8c8c" stop-opacity="0.5"/><stop offset="1" stop-color="#666"/></linearGradient><linearGradient id="New_Gradient_Swatch_2" x1="627.13" y1="215.62" x2="627.13" y2="215.62" gradientUnits="userSpaceOnUse"><stop offset="0.1" stop-color="#20d5d2" stop-opacity="0"/><stop offset="0.9" stop-color="#408bfc" stop-opacity="0.8"/></linearGradient><linearGradient id="linear-gradient-8" x1="583.25" y1="175.78" x2="706.52" y2="175.78" xlink:href="#linear-gradient"/><linearGradient id="linear-gradient-9" x1="7196.77" y1="391.71" x2="7416.43" y2="391.71" gradientTransform="matrix(-1, 0, 0, 1, 8016.57, 0)" gradientUnits="userSpaceOnUse"><stop offset="0" stop-color="#fff"/><stop offset="0.68" stop-color="#f3f3f3"/></linearGradient><linearGradient id="linear-gradient-10" x1="-1820" y1="127.11" x2="-1779.87" y2="127.11" gradientTransform="translate(1909.81)" gradientUnits="userSpaceOnUse"><stop offset="0.1" stop-color="#20d5d2"/><stop offset="0.9" stop-color="#00bab6"/></linearGradient><linearGradient id="linear-gradient-11" x1="-1820" y1="128.11" x2="-1783.48" y2="128.11" gradientTransform="translate(1909.81)" gradientUnits="userSpaceOnUse"><stop offset="0.1" stop-color="#20d5d2"/><stop offset="0.9" stop-color="#92eeee"/></linearGradient><linearGradient id="linear-gradient-12" x1="-1892.92" y1="83.88" x2="-1852.8" y2="83.88" xlink:href="#linear-gradient-10"/><linearGradient id="linear-gradient-13" x1="-1892.92" y1="84.89" x2="-1856.4" y2="84.89" xlink:href="#linear-gradient-11"/><linearGradient id="linear-gradient-14" x1="-1747.07" y1="171.08" x2="-1706.95" y2="171.08" xlink:href="#linear-gradient-10"/><linearGradient id="linear-gradient-15" x1="-1747.07" y1="172.08" x2="-1710.55" y2="172.08" xlink:href="#linear-gradient-11"/></defs><path class="cls-1" d="M12.35,361.47c3.81,1,10.79.45,14.1-1.59,2.76.08,15.05-6.2,17.08-.76,1.78,4.77-4.69,9.18-8.16,10-7.55,1.86-13.14,5.67-16.17,6.31-2.27.49-5.19.8-7-1C10,372.3,10.23,364.32,12.35,361.47Z" transform="translate(0)"/><path class="cls-2" d="M35.65,357.4c1.69,1,3.26,2.49,3.64,4.35.18.86-1.12,1.22-1.3.36-.41-2-2.55-4.05-4.26-4.22A1.76,1.76,0,0,1,35.65,357.4Z" transform="translate(0)"/><path class="cls-2" d="M32.81,358.16c1.68,1,3.31,2.56,3.69,4.42.18.86-1.12,1.22-1.3.36-.41-2-2.55-4.05-4.26-4.22A1.71,1.71,0,0,1,32.81,358.16Z" transform="translate(0)"/><path class="cls-3" d="M11.33,246.5c1.55,15.24,5.71,33,.84,53.84-3.93,16.76-.09,61.41-.09,61.41s8.66,5.41,14.29-.78c0,0,1-38,5.84-59,2.24-9.69,5.12-34.25,4.86-55.46Z" transform="translate(0)"/><path class="cls-4" d="M37.27,357.32" transform="translate(0)"/><path class="cls-1" d="M32.44,373.36c3.81,1,10.79.45,14.1-1.59,2.76.08,15.05-6.2,17.08-.76,1.78,4.77-4.69,9.18-8.15,10-7.56,1.86-13.15,5.67-16.18,6.31-2.27.49-5.19.8-7-1C30.14,384.19,30.32,376.21,32.44,373.36Z" transform="translate(0)"/><path class="cls-3" d="M31,246.74c2.82.36,25.1-5.53,25.1-5.53,3.1,22.88-.86,60.13-3.75,72.64-4.85,21-5.84,59-5.84,59-5.63,6.19-14.29.78-14.29.78s-3.84-44.65.09-61.41C38.42,285.89,30.11,264.35,31,246.74Z" transform="translate(0)"/><path class="cls-4" d="M57.36,369.21" transform="translate(0)"/><path class="cls-5" d="M70.75,202.81c4.82-4.1,9.09-7.43,12.56-12.72,1.62-2.49,3.26-5.59,6.39-7.93a18.18,18.18,0,0,1,3.28-1.9,14.17,14.17,0,0,0,4.19-3.19.37.37,0,0,1,.28-.13.47.47,0,0,1,.7-.05c.94.9.55,2.07-.18,3a17.62,17.62,0,0,1-2.39,2.34,7.08,7.08,0,0,1-1.77,7.93c-.55.5-6.07,4.47-7.16,4.53-3,5.42-10.45,16-10.45,16C75.48,209.74,70.75,202.81,70.75,202.81Z" transform="translate(0)"/><path class="cls-1" d="M79.72,193.69c-1.28.17-15.29,13-15.29,13S60,194.4,59.55,193.49c-1.49-3.11-2.91-6.26-4.42-9.36-6.3-12.92-19.46-26.54-35-23.74a9.63,9.63,0,0,0-4.76,2,13.32,13.32,0,0,0-4.38,8.9,67.87,67.87,0,0,0,2,25c2.66,10.28,4,19.19.76,29.47-2.51,8-5.75,17.5-3.85,25.89.06,0,22.55,15,49.54,2-1-15-6.49-36.19-6.73-39,1.34,1.19,6.26,9.42,8.73,9.41,4.69,0,22.21-21,23.31-22.84C84.53,199.35,83.57,196.81,79.72,193.69Z" transform="translate(0)"/><path class="cls-5" d="M31.72,123.37A14.12,14.12,0,0,0,21,122.1,18.4,18.4,0,0,0,9.38,132.64a17.08,17.08,0,0,0,.5,15.06c-.08.17,9.24,19.71,11.18,21.94a65.84,65.84,0,0,0,12.86-3.41c-1-2.6-1.93-7.95-.84-10.45a8.74,8.74,0,0,0,6-.85c4.2-2.72,3.5-11,3-15.24C41.24,133.25,37.51,126.55,31.72,123.37Z" transform="translate(0)"/><path class="cls-3" d="M39.31,122.37a20.17,20.17,0,0,0-6.13-3.07,24.11,24.11,0,0,0-14.93.34A22.54,22.54,0,0,0,4.74,132.41c-2.59,6.66,1.12,13.5-2.32,19.88a19.73,19.73,0,0,0-.07,18.81,1.47,1.47,0,0,1-.1,1.54,12,12,0,0,0,2.6,15.64,11.81,11.81,0,0,0,5.3,2.18,1.79,1.79,0,0,1,.32.13c1.7,9,11.77,11.51,19.43,8.48a10.81,10.81,0,0,0,7-8.84c.56-4.09.33-8.29,1.3-12.32.79-3.23,3.87-6.87,7.47-6.55A6.77,6.77,0,0,0,46.76,167c-.25-4.59-3.74-7.74-7.32-10.12-1.75-1.16-3.14-3.32-4.61-5.15a5.5,5.5,0,0,0-3-2,3.57,3.57,0,0,1-2.76-2.44,1.42,1.42,0,0,1,2.28-1.5c.67.58,1.25,1.19,1.52,1.44.58.56,1.4-.26,1.15-.9-.44-1.12-1-2.24-1.33-3.39a3.31,3.31,0,0,1,.83-3.62,1.37,1.37,0,0,1,.61-.34c3-.82,5.88-1.26,8.92-2.9C45,135,43.58,125.51,39.31,122.37Z" transform="translate(0)"/><path class="cls-6" d="M278,236.66,140.87,157.51c-3-1.72-5.39-5.53-5.39-8.5V22.11c0-3,2.41-4,5.39-2.28L278,99c3,1.72,5.39,5.53,5.39,8.5v126.9C283.35,237.35,280.93,238.37,278,236.66Z" transform="translate(0)"/><path class="cls-7" d="M262.5,248.29,122.83,167.65c-3-1.75-5.5-5.63-5.5-8.66V29.7c0-3,2.46-4.08,5.5-2.32L262.5,108c3,1.75,5.49,5.63,5.49,8.66V246C268,249,265.54,250,262.5,248.29Z" transform="translate(0)"/><polygon class="cls-8" points="253.14 131.04 132.19 61.21 132.19 46.32 253.14 116.15 253.14 131.04"/><polygon class="cls-8" points="246.49 149.14 155.17 96.42 155.17 91.35 246.49 144.07 246.49 149.14"/><ellipse class="cls-8" cx="142.85" cy="86.77" rx="3.07" ry="5.43" transform="translate(-23.47 103.29) rotate(-36.95)"/><polygon class="cls-8" points="246.49 172.34 155.17 119.62 155.17 114.55 246.49 167.27 246.49 172.34"/><ellipse class="cls-8" cx="142.85" cy="109.97" rx="3.07" ry="5.43" transform="translate(-37.42 107.95) rotate(-36.95)"/><polygon class="cls-8" points="246.49 195.54 155.17 142.82 155.17 137.75 246.49 190.47 246.49 195.54"/><ellipse class="cls-8" cx="142.85" cy="133.17" rx="3.07" ry="5.43" transform="translate(-51.36 112.61) rotate(-36.95)"/><polygon class="cls-8" points="246.49 218.74 155.17 166.02 155.17 160.95 246.49 213.67 246.49 218.74"/><ellipse class="cls-8" cx="142.85" cy="156.37" rx="3.07" ry="5.43" transform="matrix(0.8, -0.6, 0.6, 0.8, -65.31, 117.27)"/><g class="cls-9"><path class="cls-10" d="M831,98.34l0,191.74c0,1.87-1.22,3.74-3.65,5.17l0-191.74C829.74,102.09,831,100.22,831,98.34Z" transform="translate(0)"/><polygon class="cls-11" points="827.31 103.51 827.27 295.25 764.5 332.15 764.54 140.42 827.31 103.51"/><path class="cls-12" d="M615,63.43c-2.49-1.45-3.73-3.36-3.72-5.25l0,191.73c0,1.9,1.23,3.8,3.72,5.25l131.81,77,0-191.73Z" transform="translate(0)"/><path class="cls-13" d="M827.26,93.1c4.91,2.87,4.94,7.54,0,10.41l-62.77,36.91c-4.9,2.88-12.85,2.87-17.77,0L615,63.43c-4.93-2.88-5-7.54-.07-10.42L677.66,16.1c4.88-2.87,12.85-2.87,17.78,0Z" transform="translate(0)"/><path class="cls-14" d="M764.54,140.42l0,191.73c-4.9,2.88-12.85,2.87-17.77,0l0-191.73C751.69,143.29,759.64,143.3,764.54,140.42Z" transform="translate(0)"/></g><path class="cls-15" d="M613.33,48.32c-.17-.15-.27-.32-.42-.47C613.06,48,613.16,48.17,613.33,48.32Z" transform="translate(0)"/><path class="cls-15" d="M611.47,45.66c-.06-.2-.06-.41-.1-.61C611.41,45.25,611.41,45.46,611.47,45.66Z" transform="translate(0)"/><path class="cls-15" d="M612.17,47a5.1,5.1,0,0,1-.29-.57A5.1,5.1,0,0,0,612.17,47Z" transform="translate(0)"/><path class="cls-15" d="M830.05,87.14a7.94,7.94,0,0,1-.74.82A7.94,7.94,0,0,0,830.05,87.14Z" transform="translate(0)"/><path class="cls-15" d="M828.91,88.41a10.11,10.11,0,0,1-1.6,1.15A10.11,10.11,0,0,0,828.91,88.41Z" transform="translate(0)"/><path class="cls-15" d="M830.73,85.78a5.33,5.33,0,0,1-.4.79A5.33,5.33,0,0,0,830.73,85.78Z" transform="translate(0)"/><path class="cls-12" d="M830.73,85.78a5.33,5.33,0,0,1-.4.79c-.1.19-.16.38-.28.57a7.94,7.94,0,0,1-.74.82,5.6,5.6,0,0,1-.4.45,10.11,10.11,0,0,1-1.6,1.15l-62.77,36.91,0,13.95,62.77-36.91c2.43-1.42,3.64-3.29,3.65-5.17l0-14a4.24,4.24,0,0,1-.13.78A4.55,4.55,0,0,1,830.73,85.78Z" transform="translate(0)"/><path class="cls-12" d="M746.77,126.47l0,13.95c4.92,2.87,12.87,2.88,17.77,0l0-13.95C759.64,129.35,751.69,129.34,746.77,126.47Z" transform="translate(0)"/><path class="cls-12" d="M615,49.48a10.46,10.46,0,0,1-1.63-1.16c-.17-.15-.27-.32-.42-.47a7.94,7.94,0,0,1-.74-.82,5.1,5.1,0,0,1-.29-.57,7.57,7.57,0,0,1-.41-.8c-.06-.2-.06-.41-.1-.61a4.45,4.45,0,0,1-.13-.8v0l0,14c0,1.89,1.23,3.8,3.72,5.25l131.81,77,0-13.95Z" transform="translate(0)"/><path class="cls-16" d="M611.37,45.05c0,.2,0,.41.1.61a7.57,7.57,0,0,0,.41.8,5.1,5.1,0,0,0,.29.57,7.94,7.94,0,0,0,.74.82c.15.15.25.32.42.47A10.46,10.46,0,0,0,615,49.48l131.81,77c4.92,2.87,12.87,2.88,17.77,0l62.77-36.91a10.11,10.11,0,0,0,1.6-1.15,5.6,5.6,0,0,0,.4-.45,7.94,7.94,0,0,0,.74-.82c.12-.19.18-.38.28-.57a5.33,5.33,0,0,0,.4-.79,4.55,4.55,0,0,0,.1-.61c.39-2.15-.76-4.38-3.57-6l-131.82-77c-4.93-2.88-12.9-2.88-17.78,0L614.89,39.06c-2.44,1.43-3.65,3.31-3.65,5.19A4.45,4.45,0,0,0,611.37,45.05Z" transform="translate(0)"/><polygon class="cls-17" points="634.74 162.75 634.74 107.51 709.97 150.94 709.97 206.18 634.74 162.75"/><polygon class="cls-18" points="580.86 162.86 634.74 162.86 709.97 206.29 662.5 211.15 580.86 162.86"/><path class="cls-15" d="M561.23,359.63a6.29,6.29,0,0,1-.43-.47A6.29,6.29,0,0,0,561.23,359.63Z" transform="translate(0)"/><path class="cls-15" d="M559.37,357a4.21,4.21,0,0,1-.11-.6A4.21,4.21,0,0,0,559.37,357Z" transform="translate(0)"/><path class="cls-15" d="M560.07,358.34a6,6,0,0,1-.3-.56A6,6,0,0,0,560.07,358.34Z" transform="translate(0)"/><path class="cls-15" d="M777.94,398.45a8,8,0,0,1-.74.83A8,8,0,0,0,777.94,398.45Z" transform="translate(0)"/><path class="cls-15" d="M776.8,399.73a10.68,10.68,0,0,1-1.59,1.15A10.68,10.68,0,0,0,776.8,399.73Z" transform="translate(0)"/><path class="cls-15" d="M778.62,397.09a5.26,5.26,0,0,1-.39.79A5.26,5.26,0,0,0,778.62,397.09Z" transform="translate(0)"/><polygon class="cls-19" points="627.12 215.62 627.15 215.62 627.15 215.62 627.12 215.62"/><path class="cls-20" d="M583.81,174.24a1.26,1.26,0,0,0,0,.27,2.42,2.42,0,0,0,.18.36c.05.09.08.17.13.26s.22.24.33.36l.19.21a4.71,4.71,0,0,0,.73.52l58.83,34.36a8.61,8.61,0,0,0,7.93,0L704.41,180a4,4,0,0,0,.71-.52,1.12,1.12,0,0,0,.18-.2,2.25,2.25,0,0,0,.33-.37,1.19,1.19,0,0,0,.13-.25,2.91,2.91,0,0,0,.18-.35,1.26,1.26,0,0,0,0-.27,2.64,2.64,0,0,0-1.59-2.69L645.55,141a8.66,8.66,0,0,0-7.94,0l-52.23,30.59a2.82,2.82,0,0,0-1.63,2.31A1.51,1.51,0,0,0,583.81,174.24Z" transform="translate(0)"/><polygon class="cls-8" points="633.05 149.99 688.81 182.16 695.25 178.98 639.57 146.84 633.05 149.99"/><polygon class="cls-8" points="636.65 161.92 680.12 187 683.04 185.54 639.64 160.49 636.65 161.92"/><polygon class="cls-8" points="628.49 167.35 671.97 192.43 674.88 190.97 631.48 165.92 628.49 167.35"/><polygon class="cls-8" points="619.53 172.65 663.01 197.73 665.93 196.27 622.53 171.22 619.53 172.65"/><polygon class="cls-8" points="609.85 178.93 653.33 204.01 656.25 202.55 612.85 177.49 609.85 178.93"/><path class="cls-21" d="M628.89,156.13a3.33,3.33,0,0,1,3.18-.55c1.2.35,1.74,1.16,1.19,1.82a3.33,3.33,0,0,1-3.18.54C628.88,157.6,628.34,156.78,628.89,156.13Z" transform="translate(0)"/><ellipse class="cls-21" cx="622.03" cy="162.33" rx="1.34" ry="2.4" transform="translate(427.41 775.03) rotate(-87)"/><path class="cls-21" d="M611.4,166.87a3.29,3.29,0,0,1,3.17-.56c1.21.35,1.74,1.16,1.19,1.82a3.33,3.33,0,0,1-3.18.55C611.38,168.33,610.85,167.52,611.4,166.87Z" transform="translate(0)"/><ellipse class="cls-21" cx="603.43" cy="173.75" rx="1.34" ry="2.4" transform="translate(398.39 767.27) rotate(-87)"/><path class="cls-1" d="M488.1,462.62c6,1.57,17.11.7,22.36-2.53,4.37.13,23.85-9.83,27.08-1.21,2.82,7.56-7.45,14.55-12.93,15.89-12,2.94-20.84,9-25.65,10-3.59.76-8.23,1.26-11.08-1.59C484.45,479.77,484.75,467.12,488.1,462.62Z" transform="translate(0)"/><path class="cls-2" d="M525.05,456.16c2.66,1.62,5.15,3.94,5.77,6.89.28,1.36-1.78,1.94-2.06.58-.65-3.13-4-6.42-6.77-6.69A2.8,2.8,0,0,1,525.05,456.16Z" transform="translate(0)"/><path class="cls-2" d="M520.54,457.36c2.66,1.62,5.24,4.06,5.85,7,.28,1.36-1.78,1.94-2.06.57-.65-3.12-4-6.41-6.76-6.68A2.7,2.7,0,0,1,520.54,457.36Z" transform="translate(0)"/><path class="cls-3" d="M486.49,280.36c2.46,24.16,9.05,52.38,1.33,85.34-6.22,26.57-.13,97.35-.13,97.35s13.72,8.58,22.64-1.23c0,0,1.58-60.21,9.26-93.55,3.55-15.36,8.11-54.29,7.7-87.91Z" transform="translate(0)"/><path class="cls-4" d="M527.61,456" transform="translate(0)"/><path class="cls-1" d="M520,481.46c6,1.58,17.11.71,22.36-2.52,4.36.13,23.85-9.83,27.07-1.21,2.83,7.56-7.44,14.55-12.93,15.89-12,2.94-20.83,9-25.64,10-3.59.77-8.23,1.27-11.08-1.58C516.3,498.62,516.6,486,520,481.46Z" transform="translate(0)"/><path class="cls-3" d="M517.59,280.75c4.47.55,39.79-8.77,39.79-8.77,4.92,36.26-1.37,95.32-5.94,115.14-7.69,33.34-9.27,93.55-9.27,93.55-8.91,9.8-22.64,1.23-22.64,1.23s-6.09-70.78.14-97.35C529.44,342.81,516.26,308.66,517.59,280.75Z" transform="translate(0)"/><path class="cls-4" d="M559.46,474.87" transform="translate(0)"/><path class="cls-5" d="M582.86,218.34c9.55-3.06,17.83-5.33,26.12-11,3.9-2.65,8.19-6.19,14.19-7.72a29.84,29.84,0,0,1,6-.77,22.39,22.39,0,0,0,8.07-2.12.7.7,0,0,1,.51,0,.73.73,0,0,1,1,.35c.83,1.9-.47,3.37-2.06,4.21a28.71,28.71,0,0,1-4.92,2,11.24,11.24,0,0,1-7.43,10.53c-1.11.39-11.6,2.85-13.23,2.26-7.7,6.12-25,17-25,17C585.57,231.37,582.86,218.34,582.86,218.34Z" transform="translate(0)"/><path class="cls-1" d="M604.38,207.83c-2,.27-31.74,14.84-31.74,14.84s-9-24.89-9.71-26.35c-2.37-4.93-4.62-9.91-7-14.82-10-20.49-30.85-42.07-55.53-37.64a15.3,15.3,0,0,0-7.55,3.23,21.12,21.12,0,0,0-6.94,14.11,107.75,107.75,0,0,0,3.19,39.63c4.21,16.29,6.33,30.42,1.2,46.71-4,12.66-9.12,27.75-6.09,41,.1,0,35.74,23.77,78.51,3.14-1.6-23.85-10.27-57.36-10.66-61.77,2.13,1.89,9.93,14.94,13.85,14.91,7.43-.05,44.66-22.14,46.41-25C612,216.8,610.47,212.78,604.38,207.83Z" transform="translate(0)"/><path class="cls-5" d="M560.74,94.66a22.28,22.28,0,0,0-14.8-8.46c-8.25-1.11-17.17,2-23.54,8.17a27.08,27.08,0,0,0-8.58,22.3c-.21.19,1.3,34.48,2.75,38.93,5,1.65,19,3.18,20.89,3,.19-4.39,2.1-12.79,5.23-15.78,3,1.87,6.31,3,9.24,2.46,7.82-1.37,11.92-13.93,13.78-20.41C568.53,115,567.23,102.86,560.74,94.66Z" transform="translate(0)"/><path class="cls-3" d="M572.45,97.88a32.44,32.44,0,0,0-7.05-8.27,38.28,38.28,0,0,0-22-8.73,35.78,35.78,0,0,0-27.63,10.29c-7.88,8.12-6.7,20.39-15.66,27.58a31.33,31.33,0,0,0-11.74,27.42,2.33,2.33,0,0,1-1.09,2.18c-7.62,4.86-10.54,16.35-5.87,24.43a18.45,18.45,0,0,0,6.38,6.46,2.11,2.11,0,0,1,.39.4c-3.11,14.22,10.07,24.07,23.11,24.39a17.17,17.17,0,0,0,15.62-8.62c3.35-5.62,5.61-11.9,9.51-17.17,3.15-4.23,9.9-7.65,15-5a10.66,10.66,0,0,0,4.34-5.61c2.48-6.87-.67-13.62-4.42-19.29-1.84-2.78-2.54-6.8-3.55-10.37a8.76,8.76,0,0,0-3.09-4.73,5.65,5.65,0,0,1-2.53-5.26,2.25,2.25,0,0,1,4.26-.79c.62,1.27,1.09,2.51,1.33,3,.5,1.17,2.2.49,2.23-.61.05-1.9,0-3.88.16-5.76a5.24,5.24,0,0,1,3.45-4.78,2.16,2.16,0,0,1,1.1-.12c4.9.67,9.36,1.79,14.81,1.27C572.94,119.75,576.73,105.11,572.45,97.88Z" transform="translate(0)"/><path class="cls-5" d="M607.14,172.52c-2-1.74-4.88,1.41-6.54,2.19-5.49,2.57-11.22,5.21-16.1,8.86-2.15,1.61-4.13,3.43-6.2,5.15-8.14,6.78-16.61,10-26.33,14.2,0,0,4.18,13.42,4.9,15.16,0,0,17.09-13.23,24.56-20.44,1.77.45,12.54-3.21,13.67-3.73a10.21,10.21,0,0,0,2.23-1.43c.79-.63,1.32-1.38,2.34-1.62a32.46,32.46,0,0,1,5.21-.38,1.3,1.3,0,0,0,1.28-1.26l-2.56-1.49-2.34-1.42a14.78,14.78,0,0,0-3.55.57c-.91.2-2.1-.15-1.64-1.32a2.1,2.1,0,0,1,.22-.42c2.17-3.28,7-3.53,9.46-6.59C606.8,177.26,609,174.12,607.14,172.52Z" transform="translate(0)"/><path class="cls-1" d="M569.12,192.43c-1.72,1.31-36.45,17.8-36.45,17.8l-10.74-9.16c-.83,5.74-1.07,11.64.42,17.29s4.67,10.19,8.1,14.67c3.25,1.19,6.2,1.9,7.58,1.1,6.8-3.92,44.53-31.24,44.63-34.78C580.79,196.71,577.3,193.81,569.12,192.43Z" transform="translate(0)"/><path class="cls-22" d="M600.27,372.45a3.11,3.11,0,0,0,.1.61,4.66,4.66,0,0,0,.41.8,4.37,4.37,0,0,0,.29.57,6.82,6.82,0,0,0,.73.82c.15.15.26.32.43.47a9.9,9.9,0,0,0,1.62,1.16l131.82,77c4.91,2.87,12.87,2.88,17.76,0L816.21,417a9.57,9.57,0,0,0,1.59-1.15c.16-.14.26-.3.41-.45a6.82,6.82,0,0,0,.73-.82,5.1,5.1,0,0,0,.29-.57,4.45,4.45,0,0,0,.39-.79,3.23,3.23,0,0,0,.1-.61c.4-2.15-.76-4.37-3.57-6l-131.82-77c-4.92-2.88-12.89-2.88-17.77,0l-62.78,36.91c-2.44,1.43-3.65,3.31-3.65,5.19A4.47,4.47,0,0,0,600.27,372.45Z" transform="translate(0)"/><polygon class="cls-23" points="428.65 228.54 394.23 208.67 394.23 220.46 362.46 220.46 362.46 236.62 394.23 236.62 394.23 248.41 428.65 228.54"/><path class="cls-24" d="M201.21,334.25c1.1,3.51,2.64,15.18,6.92,16.33s6.31-.05,7-.64,3.94-4,1.64-4.41-2-2.57-4.39-4.12c0,0,1.19.67,2.6,1.56,1.71,1.07,2.61-.34.3-2.21s-7.2-5.8-7.82-8.54Z" transform="translate(0)"/><path class="cls-1" d="M108.92,406.15s10.22-1,16.26-1.6c0,0,5.1-.84,5.41,3.87s-2.57,8.22-10.83,12.36l-10.84,4.78s-4.1,2.86-7.92,2.86-6.69-1.27-7-4.14v-24.5Z" transform="translate(0)"/><path class="cls-1" d="M88.47,391.83s10.21-1,16.26-1.6c0,0,5.09-.85,5.41,3.87s-2.58,8.22-10.84,12.36l-10.83,4.77s-4.11,2.87-7.93,2.87-6.68-1.27-7-4.14v-24.5Z" transform="translate(0)"/><path class="cls-3" d="M119.77,289.35l3.19-.63s1,21.64-1.6,37.55-4.13,30.55-8,48.69a112.48,112.48,0,0,0-1.91,33.42,8.11,8.11,0,0,1-6,7.95C99.09,418.24,94,412.19,94,412.19c-1.68-35.6-.42-50.08,1.27-56.32a80.36,80.36,0,0,0,2.93-18.68c.1-2.63,0-4.78,0-6.09a97.46,97.46,0,0,1-1.86,13.23,97.55,97.55,0,0,1-3.62,12.81v40.1s-.63,5.09-8.59,6-10.59-6.36-10.59-6.36V362.87c.52-4.88,1.34-12.12,2.57-20.88,1.73-12.42,2.91-18.21,4-25.6a269.87,269.87,0,0,0,2.76-35.73Z" transform="translate(0)"/><path class="cls-5" d="M119.62,173.82l-1.14,12s.21,11.21-6.76,10.55l-1.35,12.74-17-4.89,1-10.46,17.23-23.3,8.54-1.42Z" transform="translate(0)"/><path class="cls-25" d="M110.73,207.07c1.3,1.49,2.59,3,3.88,4.48a26.67,26.67,0,0,1-5.28.55c-9.1.06-16-4.51-19.17-7l2.62-4a65.09,65.09,0,0,0,18,6Z" transform="translate(0)"/><path class="cls-5" d="M137.2,252.33a131.62,131.62,0,0,0,13.74-22.4s5.88-2.31,8.62-6.22,2.69-4.09,2.82-5.54,0-5,0-5,3.88-2.87,4.5-5.29-2.95-1-5.32.93-7.65,7.32-7.65,7.32-6.32,5.27-8,7.44-16.91,18.36-16.91,18.36Z" transform="translate(0)"/><path class="cls-1" d="M107.27,208.08s6.07,1.56,14.64,8.83,15.58,23.63,15.58,23.63,3.37,6.49,1.55,10.39c0,0-2.07,3.89-4.93,3.89s-8.9-6.75-10.68-9.09-3.08-3.89-3.08-3.89a86.17,86.17,0,0,1,2.78,12.73c.52,5.19,2.37,19,2.37,19s.9,14.6-4.37,19.54S103,294,96.2,291.17s-11.42-7.53-13-10.12-2.08-15.58,0-22.85,3.63-16.1,2.07-24.15-5.19-17.66-1.55-26S97.38,202.91,107.27,208.08Z" transform="translate(0)"/><path class="cls-5" d="M180,203.19a13.38,13.38,0,0,0-10.36-2,17.09,17.09,0,0,0-11.56,10,18.3,18.3,0,0,0,.17,15.41c-.07.16,8.57,20.72,10.41,23.13a60.19,60.19,0,0,0,12.59-2.63c-.9-2.72-1.71-8.24-.61-10.72a8,8,0,0,0,5.83-.47c4.14-2.5,3.63-11,3.22-15.36C189,213.9,185.52,206.81,180,203.19Z" transform="translate(0)"/><path class="cls-1" d="M169.65,446.44c1,.06,2.24-.27,4.7-1.05.93-.29,2.14-.7,4.61-1.65,1.74-.67,2.9-1.15,3.69-1.51a6.94,6.94,0,0,0-2.87-3.18c-2.79.83-5.31,1.76-6.39,1.73-2.15,1.32-5.85,2-9.22,2.06C165.37,444.43,167.25,446.29,169.65,446.44Z" transform="translate(0)"/><path class="cls-1" d="M190.42,440c-.79-2.11-3.14-2.45-5.86-2.08a6.85,6.85,0,0,1,2.74,3.87c.19.91-1.2,1.3-1.39.38a5.7,5.7,0,0,0-1.16-2.32,2.91,2.91,0,0,1-.3,1.08,1.5,1.5,0,0,1-.54.59,4.94,4.94,0,0,1,.41,1.15c.19.92-1.2,1.31-1.39.39a4.69,4.69,0,0,0-.28-.85c-.79.36-2,.84-3.69,1.51-2.47.95-3.68,1.36-4.61,1.65-2.46.78-3.71,1.11-4.7,1.05-2.4-.15-4.28-2-5.48-3.6a19.38,19.38,0,0,1-4.83-.47c-2.11,2.83-2.29,10.78-.14,12.93,1.79,1.79,4.71,1.48,7,1,3-.65,8.6-4.45,16.13-6.29C185.74,449.16,192.19,444.77,190.42,440Z" transform="translate(0)"/><path class="cls-3" d="M165,321.77a32.71,32.71,0,0,0-6,8.81,35.27,35.27,0,0,0-2.55,20.18c.61,4.27,1.34,4.32,2.78,10,2.9,11.29,3.34,24.13,1.46,33.51-.27,1.35-1,4.61-1.51,9.25-.41,3.52-.54,6.37-.61,8.78-.33,11.14.11,30.16.15,31.83a6,6,0,0,0,3.4,2.29c2.73.58,5.9-1.18,7.55-4.5.75-7.12,1.91-17.73,3.48-30.61,2.44-20.09,3.8-28.74,5.56-43.13,1.39-11.28,3.18-27.33,4.74-47Z" transform="translate(0)"/><path class="cls-1" d="M183.66,439.59" transform="translate(0)"/><path class="cls-1" d="M183.91,441.54a1.5,1.5,0,0,0,.54-.59,2.91,2.91,0,0,0,.3-1.08,6.84,6.84,0,0,0-1.87-1.63c-.52.11-1,.24-1.56.38A8.29,8.29,0,0,1,183.91,441.54Z" transform="translate(0)"/><path class="cls-1" d="M184.5,437.9a12.32,12.32,0,0,0-1.09-.74,1.88,1.88,0,0,0-2.06.52,3.86,3.86,0,0,1,1.53.56c.55-.12,1.1-.22,1.63-.29Z" transform="translate(0)"/><path class="cls-1" d="M184.56,437.94l-.06,0V438Z" transform="translate(0)"/><path class="cls-1" d="M184.75,439.87a5.7,5.7,0,0,1,1.16,2.32c.19.92,1.58.53,1.39-.38a6.85,6.85,0,0,0-2.74-3.87h-.05A5.19,5.19,0,0,1,184.75,439.87Z" transform="translate(0)"/><path class="cls-1" d="M184.75,439.87a5.19,5.19,0,0,0-.24-1.92c-.53.07-1.08.17-1.63.29A6.84,6.84,0,0,1,184.75,439.87Z" transform="translate(0)"/><path class="cls-1" d="M180.37,438a1.82,1.82,0,0,0-2,.6,3.94,3.94,0,0,1,1.41.48c.51-.15,1-.3,1.54-.43A11.43,11.43,0,0,0,180.37,438Z" transform="translate(0)"/><path class="cls-1" d="M182.93,443.08c.19.92,1.58.53,1.39-.39a4.94,4.94,0,0,0-.41-1.15,8.28,8.28,0,0,1-1.26.69A4.69,4.69,0,0,1,182.93,443.08Z" transform="translate(0)"/><path class="cls-1" d="M182.65,442.23a8.28,8.28,0,0,0,1.26-.69,8.29,8.29,0,0,0-2.59-2.92c-.52.13-1,.28-1.54.43A6.94,6.94,0,0,1,182.65,442.23Z" transform="translate(0)"/><path class="cls-3" d="M180.16,454.28a15.59,15.59,0,0,1-1.69-2.47l10.27-1.63a343.54,343.54,0,0,1,6.44-58.47c3.48-17.43,8.45-34.95,4.55-58.5a111.54,111.54,0,0,0-4.85-18.79,19.47,19.47,0,0,0-8-1.13,20.89,20.89,0,0,0-13.34,6.5,211.3,211.3,0,0,0,.7,32.89c1.15,11.29,1.73,16.93,2.33,20.48,1.25,7.4,2.8,13.79,1.53,22-.22,1.47-.48,2.59-.76,5a68.64,68.64,0,0,0-.15,14.74c.42,4.82.3,15.12-2.23,39.45a3.55,3.55,0,0,1,.34-.54A18.91,18.91,0,0,0,180.16,454.28Z" transform="translate(0)"/><path class="cls-1" d="M197.33,282.66c0-4-.34-12.94-1.23-16.35,0,0-1.1-8.53-2.55-10.09-11.37-12.25-23.08-17.44-32.94-15.78a10.79,10.79,0,0,0-5,2,12.64,12.64,0,0,0-4.64,8.63,64.28,64.28,0,0,0-.17,12.12,61,61,0,0,0,2.31,12.12c1.71,6.11,2.7,9.13,7.8,21.4,2.28,5.5,2.26,15.22-8.2,33.74a52.24,52.24,0,0,0,44.11,1.36L200.43,342l11-3.77S200,306.48,199.74,299A95,95,0,0,0,197.33,282.66Z" transform="translate(0)"/><path class="cls-3" d="M179.83,220.24c-.94-1.76-1.15-2-2.36-1.28s-1.05,3-1,3.2c.38,2.84,1.82,3.85,2.06,3.94a26.36,26.36,0,0,0,2.19,4.83A27.58,27.58,0,0,0,191,241a45.74,45.74,0,0,1-6.22,3.09c-5.07,2.05-14.95,6-24.57,2.19a24.94,24.94,0,0,1-11.67-10.07c.28-2.77.76-6.73,1.61-11.44,2.46-13.52,3.69-20.28,8.47-24.1a20.68,20.68,0,0,1,18-3.34,17.75,17.75,0,0,1,3.16,1.3c1.63.48,7.28,2.32,8.24,6.35.86,3.65-2.42,7.91-6.45,13.15C180.87,219,180.27,219.73,179.83,220.24Z" transform="translate(0)"/><path class="cls-1" d="M206.34,451.46c-1-2.56-4.21-2.51-7.66-1.75a4,4,0,0,1,1.6,1.45,3.09,3.09,0,0,1,.46,2.14c-.52,2.38-4.86,3.3-8.54,4.08-3,.64-4.54,1-6.12.65a8.79,8.79,0,0,1-2.36-.83,10.54,10.54,0,0,1-3.53.28,10.83,10.83,0,0,1-5.37-2.07c0-.36.07-.71.11-1.06-1.78,3.18-1.83,10.37.2,12.39,1.79,1.8,4.71,1.48,7,1,3-.64,8.6-4.44,16.12-6.29C201.66,460.61,208.12,456.21,206.34,451.46Z" transform="translate(0)"/><path class="cls-3" d="M180.19,457.48a10.54,10.54,0,0,0,3.53-.28,11.58,11.58,0,0,1-3.56-2.92,18.91,18.91,0,0,1-4.89-.47,3.55,3.55,0,0,0-.34.54c0,.35-.08.7-.11,1.06A10.83,10.83,0,0,0,180.19,457.48Z" transform="translate(0)"/><path class="cls-5" d="M188.68,452.57c0,.69,0,1.36,0,2.05a12.13,12.13,0,0,1-4.92,2.58,8.79,8.79,0,0,0,2.36.83c1.58.31,3.09,0,6.12-.65,3.68-.78,8-1.7,8.54-4.08a3.09,3.09,0,0,0-.46-2.14,4,4,0,0,0-1.6-1.45c-3.83.84-7.91,2.56-9.36,2.51C189.12,452.34,188.91,452.46,188.68,452.57Z" transform="translate(0)"/><path class="cls-3" d="M180.16,454.28a21.33,21.33,0,0,0,8.52-1.71l.06-2.39-10.27,1.63A15.59,15.59,0,0,0,180.16,454.28Z" transform="translate(0)"/><path class="cls-3" d="M188.68,452.57a21.33,21.33,0,0,1-8.52,1.71,11.58,11.58,0,0,0,3.56,2.92,12.13,12.13,0,0,0,4.92-2.58C188.65,453.93,188.67,453.26,188.68,452.57Z" transform="translate(0)"/><polygon class="cls-26" points="90.3 98.64 86.68 100.64 91.62 131.82 123.26 155.57 126.88 153.57 126.88 119.67 90.3 98.64"/><polygon class="cls-27" points="123.26 121.67 123.26 155.57 86.68 134.54 86.68 100.64 123.26 121.67"/><path class="cls-28" d="M115.93,126.46l-17,7.69L94,127.31" transform="translate(0)"/><polygon class="cls-29" points="17.24 55.42 13.63 57.42 18.57 88.6 50.21 112.35 53.82 110.35 53.82 76.45 17.24 55.42"/><polygon class="cls-30" points="50.21 78.45 50.21 112.35 13.63 91.32 13.63 57.42 50.21 78.45"/><path class="cls-28" d="M42.87,83.24l-17,7.69L21,84.09" transform="translate(0)"/><polygon class="cls-31" points="163.35 142.61 159.73 144.61 164.67 175.8 196.31 199.55 199.93 197.55 199.93 163.64 163.35 142.61"/><polygon class="cls-32" points="196.31 165.65 196.31 199.55 159.73 178.51 159.73 144.61 196.31 165.65"/><path class="cls-28" d="M189,170.44l-17,7.68-4.88-6.84" transform="translate(0)"/><path class="cls-3" d="M119.75,170.19s-1,.05-2.32,2.2a25.8,25.8,0,0,0-2.12,6.39,4.67,4.67,0,0,0-4,2.69,4.83,4.83,0,0,0,2,5.86c-5.5.19-8,1.88-9.29,3.52-1.07,1.39-1.34,3-3.09,4.05a8.22,8.22,0,0,1-5.37.91s-4.2-.48-7.32-6.94-5.35-16.11.53-23.73c1.82-2.35,3.67-5.75,7.47-6.94,4.22-1.33,7.87.73,10.5-1.58a6.52,6.52,0,0,0,1.9-4.35,12.86,12.86,0,0,1,5.87,2.39,14.19,14.19,0,0,1,5.18,8.67A16.39,16.39,0,0,1,119.75,170.19Z" transform="translate(0)"/></svg>