<?xml version="1.0" encoding="utf-8"?>
<!-- Generator: Adobe Illustrator 23.0.1, SVG Export Plug-In . SVG Version: 6.00 Build 0)  -->
<svg version="1.1" id="icon" xmlns="http://www.w3.org/2000/svg" xmlns:xlink="http://www.w3.org/1999/xlink" x="0px" y="0px"
	 viewBox="0 0 32 32" style="enable-background:new 0 0 32 32;" xml:space="preserve">
<style type="text/css">
	.st0{fill:#C5C5C5;}
	.st1{fill:none;}
</style>
<title>package</title>
<path class="st0" d="M26,30H6c-1.1,0-2-0.9-2-2V16c0-1.1,0.9-2,2-2h3v2H6v12h20V16h-3v-2h3c1.1,0,2,0.9,2,2v12
	C28,29.1,27.1,30,26,30z"/>
<rect x="13" y="20" class="st0" width="6" height="2"/>
<polygon class="st0" points="20.6,8.6 17,12.2 17,2 15,2 15,12.2 11.4,8.6 10,10 16,16 22,10 "/>
<rect id="_Transparent_Rectangle_" class="st1" width="32" height="32"/>
</svg>
