<?xml version="1.0" encoding="utf-8"?>
<!-- Generator: Adobe Illustrator 23.0.1, SVG Export Plug-In . SVG Version: 6.00 Build 0)  -->
<svg version="1.1" id="icon" xmlns="http://www.w3.org/2000/svg" xmlns:xlink="http://www.w3.org/1999/xlink" x="0px" y="0px"
	 viewBox="0 0 32 32" style="enable-background:new 0 0 32 32;" xml:space="preserve">
<style type="text/css">
	.st0{fill:none;}
	.st1{fill:#C5C5C5;}
</style>
<title>wallet</title>
<rect id="_Transparent_Rectangle_" class="st0" width="32" height="32"/>
<rect x="22" y="17" class="st1" width="2" height="2"/>
<path class="st1" d="M28,8H4V5h22V3H4C2.9,3,2,3.9,2,5v21c0,1.1,0.9,2,2,2h24c1.1,0,2-0.9,2-2V10C30,8.9,29.1,8,28,8z M4,26V10h24v3
	h-8c-1.1,0-2,0.9-2,2v6c0,1.1,0.9,2,2,2h8v3H4z M28,15v6h-8v-6H28z"/>
</svg>
